<svg version="1.0" width="528.565" height="728" viewBox="0 0 396.424 546" preserveAspectRatio="xMidYMid" xmlns="http://www.w3.org/2000/svg">
    <path d="M375.155 32.925c-.624 1.457-.52 1.561.52.625.728-.729 1.04-1.56.728-1.873-.312-.312-.936.208-1.248 1.248zM378.172 58.208c-.312.52-.104 1.04.416 1.04.625 0 1.145-.52 1.145-1.04 0-.624-.208-1.04-.416-1.04-.313 0-.833.416-1.145 1.04zM377.86 67.052c-1.144 1.248-1.04 1.56.312 1.56.832 0 1.56-.728 1.56-1.56 0-1.873-.207-1.873-1.872 0zM375.675 71.006c.208.104 1.353.936 2.497 1.768 1.977 1.457 1.977 1.457.624-.312-.728-.936-1.872-1.769-2.497-1.769-.624 0-.832.104-.624.313zM380.773 74.855c0 .52.52 1.04 1.04 1.04.625 0 1.041-.52 1.041-1.04 0-.624-.416-1.04-1.04-1.04-.52 0-1.04.416-1.04 1.04zM362.045 95.664c0 .52.52 1.04 1.145 1.04.52 0 .728-.52.416-1.04-.312-.624-.832-1.04-1.144-1.04-.209 0-.417.416-.417 1.04zM346.023 97.64c-.417.729-.52 1.561-.208 1.874.936.936 1.976-.417 1.456-1.873-.416-1.145-.624-1.145-1.248 0zM318.867 100.762c-.312.52-.104 1.249.52 1.665.52.312 1.04-.104 1.04-.937 0-1.872-.623-2.185-1.56-.728zM357.363 100.866c-.312.52-.104 1.04.417 1.04.624 0 1.144-.52 1.144-1.04 0-.624-.208-1.04-.416-1.04-.312 0-.833.416-1.145 1.04zM378.692 104.716c0 1.352.52 2.393 1.04 2.393 1.353 0 1.353-1.145 0-3.122-.832-1.248-1.04-1.144-1.04.729zM357.78 107.837c-1.04.208-1.561 1.145-1.249 2.185.208 1.144-.936 3.33-2.913 5.41-2.705 2.81-3.434 4.37-3.33 7.491.208 2.914-.104 3.746-1.352 3.226-.937-.312-1.457.104-1.457 1.352-.208 6.971-1.144 13.318-2.185 14.566-.832 1.04-.832 2.706.208 6.867.729 3.018 1.249 6.66 1.145 8.012-.104 1.352.208 3.017.728 3.641.416.625 1.457 3.018 2.185 5.306.728 2.29 1.977 5.307 2.913 6.763 4.994 7.804 7.491 14.15 7.491 19.04 0 4.058-.312 4.994-1.56 4.474-2.081-.728-1.457 1.769.624 2.705 1.145.417 1.873 2.706 2.289 7.908.416 4.057 1.145 8.531 1.665 9.884 1.977 5.098 2.497 17.48 1.144 26.74-1.144 8.219-1.144 9.571.312 11.756 1.977 3.017 5.827 4.37 6.66 2.185.311-.832.936-1.249 1.352-.936 1.56.936 4.89-3.122 6.138-7.7.729-2.6 1.665-5.618 2.185-6.762.416-1.249.833-2.706 1.04-3.226.105-.624.937-1.873 1.77-2.913 1.248-1.249 1.248-1.769.312-1.769-.729 0-1.04-.832-.729-2.08.312-1.041 0-2.186-.728-2.498-.624-.208-.104-.832 1.248-1.144 1.249-.416 2.29-1.56 2.29-2.705 0-1.04.416-2.081.936-2.393.52-.313 1.144-1.77 1.352-3.226.417-2.185.104-2.6-1.872-2.6-3.434 0-3.122-2.498.416-3.746 2.809-1.145 2.809-1.145-.833-.833-1.976.104-4.057.208-4.473.312-.417.104-.313 1.04.312 2.185.832 1.56.728 2.705-.625 4.682-1.56 2.393-4.473 3.954-3.017 1.56.312-.52-.104-2.08-.936-3.328-1.665-2.393-2.081-1.977-1.665 1.664.104 1.04-.312 1.56-.832 1.249a1.112 1.112 0 0 0-1.561.624c-.312.728-.624.312-.624-1.04-.104-1.77-.729-2.29-3.122-2.29s-3.12-.52-3.433-2.6c-.312-1.457-.104-2.914.312-3.226.52-.312.937-1.248.937-2.185 0-.936 1.144-4.057 2.497-7.075 4.994-10.404 8.323-21.017 9.988-31.525.728-4.162 1.873-8.115 2.497-8.844 1.769-1.664 4.162-8.948 3.33-9.884-.417-.312-.937.416-1.353 1.665-.729 2.913-4.058 3.017-4.994.208-.313-1.145-1.145-2.081-1.665-2.081-1.457 0-1.145-9.26.624-14.982.832-2.705 1.249-5.41 1.04-5.827-.312-.52 0-2.08.625-3.537.728-1.457.832-3.434.416-4.474-1.457-3.33-1.56-5.618-.52-7.595 1.352-2.497.208-8.324-1.665-8.324-1.457 0-2.81 3.746-2.289 6.347.208.832-.312 1.352-1.04 1.144-.937-.208-1.249.416-.729 1.77.313 1.144.104 2.288-.52 2.704-.52.312-1.04 1.769-1.04 3.226 0 1.352-.937 3.433-2.081 4.577-1.145 1.145-2.081 2.914-2.081 3.85 0 1.56-.104 1.56-1.249.104-1.04-1.248-1.976-1.456-3.745-.728-2.081.832-2.29 1.352-1.665 4.786.312 2.185 1.353 4.578 2.29 5.202 1.352 1.145 1.144 1.353-1.978 1.353-2.08 0-3.017.416-2.289.832.833.52 1.04 1.769.52 3.85-.624 2.289-1.768 3.433-4.37 4.265-1.976.625-3.745 1.665-3.953 2.29-.208.624-1.04.832-1.873.52-3.33-1.249.208-22.37 5.723-34.023 2.6-5.514 5.098-13.317 4.057-13.005-.208.104-1.04.312-1.976.624zm8.115 28.82c-.728 1.457-1.353 2.393-1.56 2.185-.729-.624.936-4.682 1.872-4.682.416 0 .312 1.145-.312 2.497zm12.173 19.873c3.017 2.705 3.538 4.682 1.249 4.682-.833 0-1.977 1.56-2.601 3.329-.937 2.705-1.457 3.121-2.185 1.873-.833-1.353-1.04-1.249-1.04.208 0 2.289-3.642 6.034-5.723 6.034-.833 0-1.56.729-1.56 1.561 0 2.185-3.122 3.225-4.37 1.457-.73-1.145-1.145-1.145-1.561-.208-.52 1.456-3.434 1.872-3.434.52 0-.52 1.56-2.601 3.538-4.578 1.976-1.977 4.474-5.515 5.618-7.7 2.289-4.37 6.867-9.78 8.324-9.78.52 0 2.184 1.145 3.745 2.602zm8.948 63.986c0 .52-.416 1.04-1.04 1.04-.52 0-1.041-.52-1.041-1.04 0-.624.52-1.04 1.04-1.04.625 0 1.04.416 1.04 1.04z"/><path d="M363.606 173.697c.312.52.832 1.04 1.144 1.04.209 0 .417-.52.417-1.04 0-.624-.52-1.04-1.145-1.04-.52 0-.728.416-.416 1.04zM331.456 120.322c-.624 1.457-.52 1.56.52.625.729-.729 1.041-1.561.729-1.873-.312-.312-.936.208-1.249 1.248zM40.654 128.958c0 1.457.624 3.537 1.457 4.578 1.872 2.497 1.872 2.185 0-3.017-1.145-3.33-1.457-3.642-1.457-1.561zM11.418 136.345c0 .52.52.728 1.04.416.624-.312 1.04-.832 1.04-1.144 0-.208-.416-.416-1.04-.416-.52 0-1.04.52-1.04 1.144zM18.493 135.929c.728.312 1.664.208 1.977-.104.416-.312-.209-.624-1.353-.52-1.145 0-1.457.312-.624.624zM21.822 136.241c0 .624 1.04 1.457 2.393 1.977 1.249.52 3.017 1.873 3.85 3.121 1.977 2.913 3.537 2.81 1.872-.208-.728-1.248-1.144-2.705-1.04-3.121.104-.416-.312-.729-1.04-.52-.729.104-2.393-.313-3.642-1.04-1.56-.833-2.393-.937-2.393-.209zM43.671 136.97c0 1.456 3.226 4.785 3.85 4.057.312-.312-.416-1.56-1.665-2.81-1.248-1.352-2.185-1.872-2.185-1.248zM54.076 145.085c-.625.832-.937 1.977-.52 2.6.312.521-.209 1.041-1.25 1.145-1.04 0-1.352.312-.52.625.625.208 1.25 1.144 1.25 1.872 0 .833.623 2.081 1.352 2.81.832.728 1.977 2.497 2.705 3.85 1.769 3.12 2.81 1.768 3.433-4.163.625-5.098-1.144-9.051-3.433-7.595-.728.416-1.04.312-.52-.416 1.04-1.769-1.04-2.393-2.497-.728zM31.186 145.5c0 .521.52 1.353 1.04 1.666.625.312 1.04.208 1.04-.417 0-.52-.415-1.352-1.04-1.664-.52-.312-1.04-.208-1.04.416zM150.836 148.726c-3.12.312-7.595 1.665-9.884 2.913-3.33 1.873-5.826 2.29-13.213 2.29-9.052 0-9.156 0-9.156-2.602 0-2.185-.52-2.6-3.226-2.6-2.705 0-3.12.311-2.809 2.288.208 1.873-.208 2.497-2.289 2.705-7.179.833-19.976 4.89-25.699 8.116-6.97 3.85-14.878 11.34-17.27 16.23-.833 1.77-1.77 2.602-2.186 2.081-.312-.624-.208-1.352.416-1.768.52-.312 1.04-1.353 1.04-2.185 0-1.353-.207-1.353-1.664 0-.936.936-1.769 2.393-1.873 3.225-.104.833-1.248 2.393-2.497 3.434-3.017 2.705-2.913 3.537.417 2.289 4.161-1.665 4.265-1.457 4.265 5.41 0 3.641.312 12.173.729 19.04 1.56 23.514 7.283 35.79 19.248 40.89 3.225 1.352 11.549 2.6 11.549 1.664 0-.104-1.353-1.769-3.018-3.538-1.976-2.289-2.809-3.953-2.393-5.722.208-1.457.833-2.29 1.353-1.977.52.312.728.936.416 1.457-.312.52 0 2.08.624 3.537 1.04 2.185 1.977 2.705 4.786 2.705 3.85 0 8.532-2.08 10.717-4.682 1.56-1.872 12.901-9.884 13.942-9.884.416 0 .52 1.457.416 3.226-.208 2.184.312 3.641 1.56 4.473 2.602 1.561 4.474-1.04 5.41-7.49.417-2.706 1.25-5.515 1.874-6.243 1.872-2.29 10.716-6.347 16.543-7.596 7.49-1.56 8.843-2.393 10.82-6.97.937-2.081 2.497-5.515 3.538-7.492.936-1.976 2.393-5.826 3.121-8.635.832-3.226 1.873-4.89 2.913-4.89 1.353 0 1.353-.312.416-1.249-1.56-1.56-1.664-4.994-.208-4.994.625 0 1.04-1.249 1.04-2.705 0-1.457-.415-2.393-.936-2.081-.416.312-1.144-1.665-1.456-4.474-.625-4.786-6.139-15.71-8.012-15.71-1.04 0-2.185-3.746-2.6-8.636-.209-2.185-.521-4.058-.73-4.266-.103-.104-2.912.104-6.034.416zm-5.826 23.41c-.416 1.04 0 1.56 1.04 1.56.937 0 1.977.625 2.29 1.457.416 1.145 1.248 1.353 3.017.625 2.705-1.04 3.641-.52 3.641 2.289 0 1.04.624 1.872 1.353 1.976.936 0 .936.209 0 .52-1.665.729-.52 3.538 1.352 3.538.833 0 1.457.624 1.561 1.249 0 .728.208 2.185.416 3.225.312 1.457-.104 1.665-1.665 1.249-1.144-.417-1.976-.209-1.976.416 0 .624 1.04 1.144 2.393 1.144l2.289.104-2.393 1.977c-1.353 1.04-2.29 2.29-2.29 2.81.313 2.08-2.184 1.248-3.225-1.145-.728-1.457-1.977-2.81-2.913-3.017-.936-.313-.416-.52 1.249-.625 1.56 0 2.809-.624 2.809-1.248 0-.52-.52-.729-1.04-.416-.625.416-3.85-.625-7.284-2.29-5.722-2.705-6.242-3.225-6.242-6.242 0-2.601.416-3.225 1.56-2.81.833.417 1.56.313 1.56-.103 0-.312-.727-1.353-1.56-2.185-.832-.937-1.56-2.185-1.456-2.81 0-.936.208-.832.624 0 .208.729 1.248 1.353 2.08 1.353.937 0 1.353-.624 1.041-1.456-.624-1.561.104-2.706 1.457-2.706.52 0 .624.729.312 1.561zm-7.907 8.844c.312.728 0 1.04-.625.624-.624-.312-1.248 0-1.56.624-.208.729-.833 1.04-1.249.625-1.144-1.04.312-4.162 1.769-3.746.624.208 1.457 1.04 1.665 1.873zm-24.243 5.202c.313.52.104 1.04-.416 1.04-.624 0-1.144-.52-1.144-1.04 0-.624.208-1.04.416-1.04.312 0 .832.416 1.144 1.04zm10.197.728c-.729.208-1.353 1.457-1.353 2.705 0 1.873.208 1.977 1.04.729.729-1.145 1.145-.937 1.977 1.352.625 1.665 1.145 3.642 1.145 4.37 0 .833.624 1.873 1.457 2.29 1.352.727 2.809 6.762 3.12 12.588.105 1.561.937 2.602 2.498 3.018 2.705.624 3.121 3.953.52 4.89-6.763 2.393-8.011 2.6-8.844 1.352-.52-.936-.832-.728-.832.417 0 3.641-22.577 10.196-24.554 7.075-.937-1.457-2.497 0-1.77 1.664.313.937-.103 1.56-1.144 1.56-.936 0-1.664.73-1.664 1.666 0 1.352-.312 1.456-1.353.52-.832-.624-1.665-.937-1.977-.624-1.248 1.248-2.6-2.602-3.745-10.405-1.56-10.092-1.56-14.774-.208-15.606.52-.313.728-1.249.312-2.081-.312-1.04.104-1.561 1.248-1.561.937 0 1.353.416 1.04 1.04-.311.52-.103 1.04.417 1.04.624 0 1.144-.207 1.144-.415s.313-1.145.625-2.081c.416-1.249 0-1.665-1.561-1.665-1.248 0-2.185-.312-2.185-.832-.104-.416-.312-2.497-.624-4.578-.52-3.434-.416-3.746 1.56-3.225 1.249.312 2.498 1.04 2.914 1.664.416.624 0 .833-1.04.416-2.082-.728-2.186-.312-.625 2.497.728 1.457 1.665 1.873 3.121 1.457 2.393-.832 2.497.624.417 4.682-1.04 2.08-1.249 3.121-.417 3.121.625 0 1.353-.936 1.665-2.08.624-2.394 2.393-2.81 2.393-.52 0 1.976.52 1.976 3.642-.105 1.456-.936 2.6-2.6 2.6-3.641 0-2.497 2.082-2.601 2.186-.208 0 1.456.208 1.56.624.312.312-.833 1.352-2.185 2.289-3.018 1.56-1.352 1.56-1.352-.104-.832-.937.312-2.29-.104-3.017-.936-1.145-1.353-1.04-1.561.624-1.249 1.144.104 2.08-.208 2.08-.936 0-2.29 6.764-6.971 6.764-4.682 0 .416.936.832 2.08.936 1.145.104 1.873-.208 1.561-.728-.624-.936 1.249-1.873 3.642-1.873 1.04 0 1.144.104.312.52zm41.305 1.977c0 .208-.728.416-1.56.416-.833 0-1.561-.416-1.561-1.04 0-.52.728-.728 1.56-.416.833.416 1.561.832 1.561 1.04zm-18.728-.208c0 .312-.416.832-1.04 1.145-.52.312-1.04.104-1.04-.417 0-.624.52-1.144 1.04-1.144.624 0 1.04.208 1.04.416zm19.248 4.786c-.312.52-1.04 1.04-1.664 1.04-.52 0-.937-.52-.937-1.04 0-.624.729-1.04 1.665-1.04.832 0 1.248.416.936 1.04zm-60.865.416c0 1.145-1.977 1.56-2.601.625-.313-.52.104-1.04.936-1.04.936 0 1.665.207 1.665.415zm44.53 2.185c-.312.312-.936-.208-1.248-1.248-.624-1.457-.52-1.561.52-.625.728.729 1.04 1.561.728 1.873zm-48.172 4.682c-.936 1.457-2.6-.52-2.6-3.121 0-1.249.311-1.249 1.664.208.936.936 1.352 2.185.936 2.913zm59.201 2.185c-.312.624-.728.936-.832.728-.104-.208-.833-1.248-1.665-2.289-1.457-1.872-1.457-1.976.832-.728 1.249.728 2.081 1.769 1.665 2.29zm-22.265 8.22c0 .52-.416 1.04-1.04 1.04-.52 0-1.041-.52-1.041-1.04 0-.625.52-1.04 1.04-1.04.625 0 1.04.415 1.04 1.04zm-53.27 2.08c-.729 1.04-1.457 1.873-1.561 1.665-.625-.624.936-3.745 1.872-3.745.52 0 .417.936-.312 2.08zm47.027 10.821c0 .208-.728.728-1.665 1.04-.832.313-1.248.208-.936-.416.624-1.04 2.601-1.456 2.601-.624zm-7.283 1.56c0 1.041-8.323 4.579-9.052 3.85-.52-.52 6.763-4.682 8.324-4.786.416 0 .728.416.728.937zm-37.768 3.434c-.312.832-.624.52-.624-.624-.104-1.145.208-1.769.52-1.353.312.312.416 1.249.104 1.977zm16.96 4.474c0 .208-1.353 1.144-3.122 2.08-3.434 1.77-4.162 1.041-1.249-1.144 1.77-1.352 4.37-1.976 4.37-.936zm-9.053 3.641c.313 1.145.104 1.873-.416 1.457-.52-.312-.936-1.248-.936-2.08 0-2.082.728-1.77 1.352.623z"/><path d="M144.594 176.194c0 .936.52 1.665 1.04 1.665.624 0 1.04-.417 1.04-.937 0-.624-.416-1.352-1.04-1.665-.52-.312-1.04.104-1.04.937zM112.444 190.968c0 1.145.312 1.457.625.624.312-.728.208-1.664-.105-1.977-.312-.416-.624.209-.52 1.353zM115.462 196.69c0 .52.728.937 1.56.937.833 0 1.56.416 1.56.936s.937 1.353 2.186 1.665c1.56.52 1.768 1.04 1.04 1.977-1.456 1.769-.104 3.017 1.665 1.56 1.56-1.352 1.873-7.179.312-7.179-.52 0-1.04.417-1.04 1.04 0 .521-.729 1.041-1.561 1.041s-1.56-.416-1.56-.936-.937-1.145-2.082-1.457c-1.144-.312-2.08-.104-2.08.416zM111.924 202.62c-.312.625-.104 1.458.52 1.77 1.457.936 2.081.208 1.04-1.457-.624-.832-1.144-.936-1.56-.312zM126.49 202.725c-.416.728-.52 1.56-.208 1.873.936.936 1.977-.416 1.457-1.873-.416-1.144-.625-1.144-1.249 0zM90.179 206.679c-1.249 1.248-.728 1.976 1.248 1.976 1.561 0 1.77-.312.937-1.352-1.249-1.56-1.353-1.56-2.185-.624zM132.109 216.355c0 .52.52 1.04 1.144 1.04.52 0 .728-.52.416-1.04-.312-.625-.832-1.04-1.144-1.04-.208 0-.416.415-.416 1.04zM158.12 149.767c0 .52.52 1.04 1.144 1.04.52 0 .728-.52.416-1.04-.312-.625-.832-1.04-1.144-1.04-.208 0-.417.415-.417 1.04zM259.77 151.223c-.728 1.873.104 2.705 2.914 2.705 3.017 0 3.85-1.04 2.497-2.809-1.561-1.768-4.682-1.768-5.41.104zM34.515 152.368c0 1.144.313 3.017.833 4.162 1.144 2.6 1.144-.105 0-3.642-.624-2.08-.833-2.185-.833-.52zM258.834 158.402c-1.873.416-4.578 1.145-5.93 1.457-2.498.624-6.347 3.85-6.347 5.306 0 1.56-4.682 6.971-6.243 7.283-.832.208-2.705 1.457-4.266 2.913-1.456 1.353-3.121 2.498-3.85 2.498-.728 0-1.248.624-1.248 1.352 0 1.457-3.641 4.89-5.202 4.89-.624 0-1.04.728-1.04 1.665 0 1.248-.313 1.456-1.353.624s-1.249-.52-1.249 1.457c.104 1.456.833 3.121 1.665 3.641 1.04.729 1.145 1.145.208 1.769-.728.416-.936 1.353-.416 2.185.728 1.04 1.04 1.04 1.665.104.624-.936.936-.936 1.56.104.729 1.04 1.249 1.04 2.393 0 .937-.624 2.81-1.457 4.266-1.769 2.497-.416 2.705-.104 2.705 2.913.312 22.37 4.474 36.312 12.173 41.41 2.185 1.457 4.162 2.913 4.474 3.225 1.77 2.29 8.428 5.098 11.861 5.098h4.058l-3.85-3.329c-2.809-2.393-3.433-3.433-2.497-4.058 1.04-.728 1.04-.936.104-.936-.728 0-1.352-.832-1.352-1.873 0-1.04-.833-2.913-1.769-4.37-1.665-2.289-1.665-2.393.312-1.664 1.457.52 1.249 0-.832-1.977-1.665-1.457-2.913-2.913-2.913-3.122 0-.832 6.45 1.561 11.444 4.266 5.827 3.122 6.971 5.41 5.203 9.884-1.77 4.162-.625 8.22 2.393 8.22 1.352 0 2.913-.52 3.641-1.249 1.769-1.768 1.56-5.098-.208-4.37-.832.313-1.665-.312-1.977-1.56-.312-1.249 0-2.185.52-2.185.625 0 .52-.624-.208-1.56-3.85-4.579 5.099.624 10.925 6.45 6.139 6.035 14.878 11.757 18.208 11.757 3.433 0 8.323-3.642 8.323-6.139 0-1.352-1.665-2.289-6.242-3.537-3.434-1.04-6.867-1.769-7.804-1.769-2.08 0-7.595-2.601-18.415-8.636-8.532-4.786-10.925-6.97-7.804-6.97.833 0 .729-.417-.312-1.145-1.04-.728-1.144-1.248-.416-1.56.728-.313.936-1.561.624-2.706-.416-1.768-.208-2.08 1.145-1.56.832.312 2.185 0 2.809-.833.832-1.04.832-1.456-.208-1.873-.729-.312.104-.624 1.769-.624 2.393-.104 2.705-.416 1.56-1.144-1.248-.833-1.04-1.457 1.249-3.85 2.08-2.08 2.705-3.641 2.185-5.306-.417-1.873-.208-2.185 1.352-1.665 1.457.416 1.56.312.52-.416-2.497-1.769.417-4.89 6.035-6.347 2.913-.728 5.306-1.768 5.306-2.289 0-.52 1.249-.936 2.913-.936 1.561-.104 3.954-.728 5.307-1.457 1.352-.728 3.433-1.144 4.578-.832 1.456.312 1.872.104 1.352-.624-.936-1.56-7.491-1.665-8.427-.208-.417.624-1.561.416-3.122-.625-3.225-2.08-2.289-4.994 1.353-4.265 1.56.312 3.225-.208 4.474-1.457 1.144-1.145 2.497-1.977 3.017-1.977.624 0 1.04-.728 1.04-1.56 0-.833.417-1.561 1.04-1.561.521 0 .73-.728.417-1.56-.416-1.041 0-1.561 1.353-1.561 3.017 0 5.93 2.6 5.202 4.577-.624 1.457-.312 1.561 1.352.625 1.665-.833 2.497-.729 3.746.52 1.873 1.873 6.139 3.017 7.595 2.08.624-.311 1.145 0 1.145.73 0 .936.312.936 1.04-.209.936-1.353 1.04-1.353 1.04 0 0 2.289-2.08 4.058-3.85 3.433-1.248-.52-1.456-.104-.936 1.561.417 1.249.209 3.121-.416 4.37-1.768 3.33.729 2.497 2.81-1.04 2.184-3.85 3.745-3.954 5.93-.52 1.56 2.392 4.682 3.849 3.225 1.56-.312-.624-.104-1.04.417-1.04.624 0 .104-1.145-1.145-2.602-1.248-1.456-2.913-2.6-3.641-2.6-.729 0-1.353-.417-1.353-.937 0-.624.936-.832 2.08-.624 1.353.208 2.082-.208 2.082-1.145 0-1.977-5.202-9.78-6.451-9.78-.52 0-2.913-1.352-5.306-3.017-9.156-6.243-23.722-10.925-44.635-14.254-12.485-1.977-19.144-2.29-23.93-1.145zm-34.126 30.901c0 .52-.52 1.04-1.145 1.04-.52 0-.728-.52-.416-1.04.312-.624.832-1.04 1.144-1.04.208 0 .417.416.417 1.04zm63.466 0c0 .52-.416 1.04-1.04 1.04-.52 0-1.04-.52-1.04-1.04 0-.624.52-1.04 1.04-1.04.624 0 1.04.416 1.04 1.04zm5.723 1.977c-.312.624-1.145.833-1.77.52-.623-.416-.52-.936.313-1.56 1.665-1.04 2.393-.416 1.457 1.04zm-5.723.52c0 .313-.416.833-1.04 1.145-.52.312-1.04.104-1.04-.416 0-.625.52-1.145 1.04-1.145.624 0 1.04.208 1.04.416zm-6.242 19.353c0 .52-.52 1.04-1.145 1.04-.52 0-.728-.52-.416-1.04.312-.625.832-1.04 1.144-1.04.209 0 .417.415.417 1.04zM49.186 180.043c-.729 1.77-1.665 2.914-2.185 2.602-.52-.313-.729.728-.416 2.288.52 2.602.416 2.706-1.353 1.249-1.665-1.457-1.769-1.249-1.145 3.642.625 4.37.313 6.138-1.872 10.924-1.457 3.121-2.601 6.659-2.601 7.803.104 1.665.208 1.561.832-.52.52-1.456 1.873-4.994 3.225-7.803 4.162-9.156 8.532-23.41 7.075-23.41-.208 0-.936 1.457-1.56 3.225zM198.176 181.604c-1.768 2.081-4.057 3.33-5.722 3.121-1.04-.104-9.364 4.995-9.364 5.723 0 .416-.312 1.665-.624 2.705-.52 1.769-.52 1.769.624 0 .624-.936 1.769-1.769 2.497-1.769.832 0 1.769-.728 2.08-1.664.417-1.04 1.353-1.353 2.602-.937 1.457.416 2.393 0 3.225-1.56.729-1.353 1.77-1.977 2.706-1.665a1.616 1.616 0 0 0 2.08-.937c.313-.728 1.249-1.144 2.081-.832.833.312 1.457 0 1.457-.624 0-.625.728-1.145 1.56-1.145 1.145 0 1.561 1.145 1.561 4.37 0 4.994 1.145 4.786 1.353-.312.208-3.538 2.809-5.722 2.809-2.289 0 1.56.208 1.665 1.04.312.937-1.352 1.353-1.144 3.226 1.04l2.08 2.602-.728-2.601c-1.04-3.746-3.225-4.786-11.34-5.619-2.29-.208-3.746.416-5.203 2.081zM55.636 184.205c-.416.624-.52 1.249-.208 1.56.208.313.729-.207 1.04-1.144.729-1.768.105-2.08-.832-.416z"/><path d="M302.532 190.032c.729.312 1.665.208 1.977-.104.416-.313-.208-.625-1.352-.52-1.145 0-1.457.312-.625.624zM215.864 194.506c-2.081 4.681-1.977 6.866 1.873 29.132 1.872 10.404 2.497 17.791 2.289 23.93-.313 9.364 1.456 17.791 7.595 34.334 3.433 9.26 5.41 10.613 5.202 3.434-.104-2.705.104-6.139.624-7.491.52-1.561.52-2.185-.208-1.77-.52.313-1.352-.103-1.665-1.04-.832-2.289-.832-2.705.313-2.08 1.04.728.832-2.706-.313-6.451-.52-1.457-.312-2.29.417-2.29.728 0 .728-.727-.209-2.392-.728-1.249-1.144-2.601-1.04-3.121.104-.417-.208-.729-.832-.729-.52 0-1.04.729-1.04 1.56 0 .833-.417 1.562-1.041 1.562-1.249 0-1.353-3.85-.104-4.578.416-.312.624-1.873.312-3.33-.312-1.977-.104-2.6.728-2.08.624.416 1.145 1.352 1.145 2.184 0 .833.416 1.665.936 2.081 1.04.52.312-2.809-1.769-7.803-1.872-4.89-3.33-9.988-3.33-12.173 0-1.145-.311-2.393-.727-2.81-.417-.312-.833-1.248-1.04-1.976-.73-3.434-3.018-9.052-3.642-9.052-.312 0-.937-1.249-1.249-2.913-.416-1.561-.936-3.954-1.352-5.41-.833-2.914-1.145-16.127-.417-19.04.208-1.353.937-1.665 2.601-1.145 1.873.624 1.977.52.729-1.04-2.081-2.498-2.705-2.081-4.786 2.497zM318.66 191.8c-.417.833-1.77 1.665-2.914 1.977-1.56.312-1.353.52.832.624 1.769.105 3.122-.52 3.538-1.56.312-.833 1.248-1.353 1.977-1.04.832.312 1.456.103 1.456-.417 0-1.56-3.954-1.248-4.89.416zM175.495 195.754c.208.52 1.352.832 2.497.832 1.04 0 1.977-.312 1.977-.832 0-.416-1.145-.728-2.497-.728-1.353 0-2.29.312-1.977.728zM352.681 195.546c-1.248.832-1.04 1.04.833 1.04 1.352 0 2.08-.416 1.768-1.04-.728-1.249-.624-1.249-2.6 0z"/><path d="M221.586 201.893c0 2.289-.416 3.953-.936 3.641-.729-.52.416 7.595 1.248 8.324.104.104.312-3.434.417-8.012.208-4.474.104-8.22-.209-8.22-.312 0-.52 1.874-.52 4.267zM338.115 200.644c0 2.913 1.56 5.098 2.81 3.954.832-.833-.729-6.971-1.873-6.971-.52 0-.937 1.352-.937 3.017zM230.43 205.638c.728 3.954 1.248 5.202 1.977 4.37.728-.936-.729-8.22-1.665-8.22-.624 0-.832 1.457-.312 3.85zM339.884 206.679c-.416.312-.728 1.144-.728 1.768 0 .625.52.52 1.248-.208.624-.624.937-1.456.729-1.768-.313-.313-.937-.209-1.249.208zM338.22 211.88c.103 1.041.52 3.226.936 4.995.728 2.81.832 2.601.936-1.873 0-2.705-.312-4.89-.936-4.89-.52 0-.937.832-.937 1.769z"/><path d="M231.366 215.626c.729 5.515 4.162 12.694 6.451 13.63 1.769.728 1.977-2.6.312-4.266-.728-.728-2.08-3.745-3.121-6.658-2.81-7.804-4.474-9.052-3.642-2.706zM38.573 215.939c0 1.144.312 1.456.624.624.313-.728.208-1.665-.104-1.977-.312-.416-.624.208-.52 1.353zM37.949 222.493c-.312 1.145-.416 2.601 0 3.226.312.52.104 1.977-.52 3.121-.833 1.457-.833 2.08 0 2.08.728 0 .832.521.312 1.25-1.353 2.288-1.04 8.531.52 9.78.936.728 1.144 1.352.52 1.768-1.144.729-.52 6.971.729 6.971 1.872 0 2.288-4.786 1.56-16.127-.728-12.069-1.769-16.126-3.121-12.069zM200.257 233.418c-.936 1.352-2.289 2.393-2.913 2.185-1.769-.624-4.37 1.665-5.306 4.682a605.28 605.28 0 0 0-2.29 8.323c-.832 3.122-2.808 8.324-4.369 11.445-1.56 3.121-2.705 6.139-2.497 6.555.104.52-.208.624-.624.312-1.457-.832-3.746 2.185-7.908 10.508-6.658 13.11-8.323 30.797-3.85 40.057 2.914 6.035 10.613 12.277 15.191 12.277 1.873 0 3.954.729 4.682 1.561 2.185 2.705 3.121 1.769 3.121-3.121 0-2.601.52-4.682 1.145-4.682.624 0 .832-.937.312-2.29-.624-2.08-.52-2.184 1.04-.936 1.457 1.145 1.665 1.145 1.665-.104 0-.832-.52-1.976-1.144-2.6-1.353-1.353-.208-5.827 1.248-4.995.52.416.937-.208 1.04-1.248 0-1.457.209-1.56.625-.312.312.832.936 1.768 1.352 2.08 1.457 1.04 3.954 10.197 3.434 12.798l-.52 2.601 6.554-.52c9.052-.833 12.902-2.705 16.231-7.7 2.29-3.537 2.81-5.722 3.226-12.693.416-7.907.104-9.676-4.37-23.41-2.601-8.115-5.723-19.768-6.971-25.907-1.249-6.242-3.017-13.11-4.058-15.398-1.04-2.29-2.393-5.41-2.913-6.867-.624-1.56-2.185-3.017-3.538-3.225-1.352-.312-3.225-.937-4.161-1.249-1.145-.52-2.29 0-3.434 1.873zm-19.456 65.34c-.208.624-1.04 1.456-1.665 1.664-.728.208-1.04-.208-.624-1.248.728-1.873 2.913-2.29 2.289-.417zm2.289 14.462c0 .52-1.353.936-3.121.936-1.665 0-3.122-.52-3.122-1.145 0-.52.417-.832.937-.416.52.312 1.248.104 1.664-.416.729-1.248 3.642-.312 3.642 1.04zm-2.08 3.017c0 .52-.417 1.04-1.041 1.04-.52 0-1.04-.52-1.04-1.04 0-.624.52-1.04 1.04-1.04.624 0 1.04.416 1.04 1.04zM227.829 236.54c0 .832.416 1.768.936 2.08.52.416.729-.312.416-1.457-.624-2.393-1.352-2.705-1.352-.624zM236.256 242.99c0 1.144.313 1.457.625.624.312-.728.208-1.664-.104-1.977-.313-.416-.625.208-.52 1.353zM231.782 244.03c-.416.52 0 3.33.729 6.139l1.456 5.202v-4.162c0-4.578-1.248-8.74-2.185-7.179zM326.67 248.608c0 .52.52 1.04 1.04 1.04.625 0 1.041-.52 1.041-1.04 0-.624-.416-1.04-1.04-1.04-.52 0-1.04.416-1.04 1.04zM20.782 252.562c0 1.56 2.913 3.537 4.682 3.121 1.248-.208.832-.832-1.457-2.185-1.769-1.04-3.225-1.456-3.225-.936zM37.949 252.77c-.312.52-.104 1.04.416 1.04.624 0 1.145-.52 1.145-1.04 0-.624-.209-1.04-.417-1.04-.312 0-.832.416-1.144 1.04zM329.792 252.77c-.833.52-1.249 1.145-.937 1.457.208.312 1.145.104 1.977-.417.833-.52 1.249-1.144.937-1.456-.208-.312-1.145-.104-1.977.416zM346.75 260.781c-1.872.729-1.664 2.393.209 2.393.832 0 1.56-.728 1.56-1.56 0-.833-.103-1.56-.207-1.457-.209 0-.937.312-1.561.624zM376.091 264.215c-.312.52-.312 1.456 0 2.08.312.521.208 1.041-.416 1.041-.52 0-1.248-.832-1.457-1.873-.312-1.144-.52-.728-.624 1.04-.104 2.186.312 2.602 1.977 2.186 1.353-.312 2.08-1.457 2.08-3.018 0-2.705-.52-3.12-1.56-1.456zM135.022 266.296c-1.769 1.04-3.642 6.97-2.497 8.011.312.312 1.04-.728 1.664-2.289.833-2.185 1.561-2.705 3.538-2.393 2.497.52 3.433-2.08 1.248-3.537-1.456-1.04-1.768-.937-3.953.208z"/><path d="M379.42 265.88c-.416.416-.728 1.872-.728 3.225 0 2.81-2.705 3.225-5.826.832-2.185-1.664-4.578-1.977-4.578-.624 0 .52 1.144 1.249 2.601 1.56 3.121.833 4.37 4.89 2.705 8.532-1.456 3.226-1.456 8.74-.104 8.74.624 0 .937-.312.833-.832-.313-1.04 6.554-14.15 7.907-14.983.624-.52.728-.832.104-.832-.52 0 .104-.936 1.56-2.08 1.457-1.041 2.394-2.186 2.081-2.498-1.04-.936-5.826-1.769-6.554-1.04zM364.126 267.336c0 .52.52 1.04 1.04 1.04.625 0 1.041-.52 1.041-1.04 0-.624-.416-1.04-1.04-1.04-.52 0-1.04.416-1.04 1.04zM253.424 272.226c-3.746 5.41-3.538 6.971.728 6.139 1.769-.312 3.85-1.353 4.474-2.29.936-1.248 1.352-1.248 1.769-.207.416 1.04.728 1.04 1.872.104 2.185-2.185 0-6.971-3.433-7.387-2.185-.312-3.33.416-5.41 3.641zM296.29 270.978c.936 1.352 1.976 2.185 2.185 1.977.208-.209.936.208 1.56 1.04 1.457 1.769 6.867 3.121 6.867 1.665 0-.625-2.81-2.393-6.243-4.058-5.93-2.913-6.138-2.913-4.37-.624zM291.816 272.85c2.393 1.977 4.682 2.29 4.682.729 0-.624-.625-1.04-1.457-1.04-.832 0-2.393-.313-3.433-.625-1.665-.624-1.665-.52.208.937z"/><path d="M360.9 274.931c1.041 1.249 1.041 2.081-.103 4.058-.728 1.353-1.977 2.81-2.601 3.225-2.081 1.249-1.56 2.81.728 2.81 1.873 0 1.977.208.832 2.08-.728 1.145-2.185 2.081-3.12 2.081-1.041 0-1.874.417-1.874 1.04 0 .521.52 1.041 1.04 1.041.625 0 1.041.416 1.041.937 0 .52-.832.832-1.769.728-1.456-.104-1.768.52-1.56 2.705.208 2.185-.208 2.913-1.56 2.913-1.562 0-1.562.208.311 1.457 1.04.832 1.769 1.769 1.457 1.977-.937.936-6.243-.52-5.619-1.457.313-.52-.104-.936-.832-.936-.832 0-1.456.936-1.56 2.08-.105 1.353.416 2.082 1.56 2.082 1.04 0 1.353.312.624.832-.624.416-1.352 1.56-1.768 2.497-.417 1.144-1.249 1.56-2.29 1.248-1.04-.416-1.56 0-1.56 1.145 0 1.04-.728 2.393-1.769 3.121-1.144.833-1.456 1.873-.832 3.226.416 1.04.728 3.12.624 4.578-.208 1.976 0 2.289 1.145 1.352.728-.624 2.913-1.457 4.786-1.873 1.768-.312 3.33-1.144 3.33-1.664 0-.625.415-.833.935-.52 1.561 1.04 16.127-15.191 19.145-21.33 2.809-5.93 3.433-8.219 2.08-8.219-1.352 0-1.248-8.324 0-8.428.729 0 .104-.52-1.352-1.04l-2.601-1.145 3.121-1.248c3.538-1.457 2.393-2.81-1.873-1.977-2.289.416-2.809 1.145-2.809 3.746 0 1.768-.312 2.809-.728 2.393-.416-.416-.729-1.977-.833-3.538 0-2.185-.624-2.913-2.6-3.121-2.082-.312-2.29-.208-1.145 1.144zm5.307 10.3c0 1.874-.208 2.082-.936.833-.625-.832-.729-1.873-.52-2.289.936-1.456 1.456-.936 1.456 1.457zm-21.745 28.613c-1.249 2.08-1.457 1.456-.52-1.249.416-.936.936-1.456 1.144-1.144.312.208 0 1.352-.624 2.393zm-3.538 1.56c-.312.833-.624.52-.624-.624-.104-1.144.208-1.769.52-1.352.313.312.417 1.248.104 1.976zM345.398 285.024c0 .52.52 1.04 1.145 1.04.52 0 .728-.52.416-1.04-.312-.625-.832-1.04-1.144-1.04-.209 0-.417.415-.417 1.04zM40.654 291.89c-.104 1.25.624 2.602 1.56 2.914 1.353.52 1.457.312.729-.625-.624-.728-1.353-2.08-1.665-2.913-.416-1.04-.624-.832-.624.625zM68.434 292.307c-.416 1.456-.833 3.537-.833 4.682.104 1.977.104 1.977 1.145.208.624-1.04.936-3.122.728-4.682l-.312-2.81zM250.198 296.573c-.312 1.352-.728 4.161-.936 6.138-.208 1.977-.416 3.954-.52 4.37 0 .52-.833.832-1.665.832-.832 0-1.769 1.145-2.185 2.601-.416 1.873-1.144 2.497-2.393 2.185-3.017-1.04-4.058.625-3.225 5.098l.832 4.162.104-4.578c.104-5.41 1.145-5.202 1.353.312.104 4.37 1.872 5.099 1.976.833l.104-2.81 1.249 3.018c.936 2.08 1.56 2.6 1.977 1.56.208-.832.208.625-.104 3.226l-.52 4.682 3.017-3.121 3.017-3.122-.104-13.317c-.104-12.902-.728-17.064-1.977-12.07zM44.296 296.364c-.313.417.312 1.665 1.352 2.602 1.769 1.664 1.873 1.56 1.457-.937-.52-2.601-1.769-3.33-2.81-1.665zM68.85 301.67c0 1.457.416 3.746.832 5.203l.833 2.6v-2.6c0-1.457-.417-3.746-.833-5.202l-.832-2.601z"/><path d="M53.66 307.913c5.722 7.283 11.236 9.988 20.392 9.78 6.139-.104 6.867.417 7.7 5.307.207 1.144.52 3.017.728 4.161.104 1.145.52 2.601.936 3.122.832 1.56 2.08 6.867 2.393 10.404.312 3.225 2.705 13.734 4.994 22.057.624 2.497 1.56 4.474 2.081 4.474.52 0 .624-.832.208-1.873-.416-.936-.832-2.497-1.04-3.329-1.665-8.844-1.665-9.364-.208-9.364.832 0 1.872.728 2.184 1.665.417.936.937 1.56 1.249 1.248.208-.312-1.144-3.85-3.225-7.907-1.977-4.058-3.642-8.011-3.642-8.74 0-.832-.936-3.225-2.08-5.514-1.145-2.289-2.082-4.994-2.082-6.243-.104-1.144-.728-3.85-1.456-6.034-1.353-3.538-1.249-3.954.416-4.89 1.04-.624 4.162-1.04 6.867-1.04 4.578 0 4.786-.105 3.017-1.457-1.144-.833-2.393-1.249-2.81-1.04-.415.207-1.456-.625-2.392-1.873-.832-1.353-1.977-2.394-2.393-2.498-2.913-.208-7.491-1.768-7.491-2.6 0-1.665-2.081-1.041-2.81.832-.936 2.497-3.017 4.474-3.85 3.745-.311-.416-.623.104-.623 1.04 0 2.706-3.33 2.082-5.93-1.144-1.874-2.185-2.29-2.393-2.394-1.04 0 1.04-.312 1.873-.624 1.873-1.56 0-6.659-5.93-6.659-7.804 0-1.664-.208-1.768-1.04-.52-.729 1.249-1.249 1.249-2.29.208-.624-.624-1.664-1.248-2.08-1.248-.416 0 1.352 2.809 3.953 6.242zm35.79 37.456c.625 1.145.729 2.08.209 2.08-.625 0-1.249-.935-1.561-2.08-.312-1.144-.312-2.08-.104-2.08.208 0 .832.936 1.457 2.08zM259.874 307.08c-1.352 2.498-2.393 4.891-2.393 5.515-.104.52-.624 1.977-1.248 3.226-1.56 2.705-1.353 14.878.208 14.67.52-.104.936.728.832 1.769-.104 1.144.312 3.017.729 4.37.624 1.56.52 2.6-.313 2.913-.936.52-.936.728.104 1.248.625.312 1.249 1.249 1.249 1.977s.728 1.248 1.665 1.144c.936 0 1.872.729 2.08 1.77.417 2.912 1.457 3.433 1.457.832 0-1.353.416-2.081 1.145-1.665.624.416.832 1.456.416 2.393-.312.832-.104 1.873.416 2.185.52.312 1.144 4.682 1.353 9.676.312 7.7.208 9.156-1.145 9.364-4.682.416-9.468 1.977-9.468 3.017 0 .52.936.936 1.977.936 1.144 0 2.185.625 2.497 1.249.312 1.04.936.832 1.873-.416.832-1.04 3.017-1.977 4.89-2.081 2.289-.208 3.33-.728 3.33-1.873 0-.936 1.144-2.393 2.6-3.121 2.705-1.457 5.723-6.763 5.723-10.196 0-1.249-.729-5.203-1.56-8.948-2.082-8.948-.625-16.127 4.473-21.745 1.457-1.561 2.185-2.81 1.56-2.81-.624 0-1.664.729-2.392 1.561-2.185 2.601-3.33 1.769-2.706-1.873.313-1.768.313-2.705 0-1.873-.52 1.145-.832 1.145-1.456 0-.624-.936-1.457-.104-2.705 2.81a381.241 381.241 0 0 1-2.705 6.138c-.52 1.145-.833 3.018-.729 4.162.52 5.41-.208 13.422-1.04 12.07-.52-.833-2.29-1.978-3.85-2.706-2.6-1.04-2.705-1.249-1.248-2.601 1.456-1.353 1.456-1.769 0-3.954-1.249-1.873-1.249-2.913-.312-4.994 1.56-3.433 1.456-4.058-.417-2.497-1.352 1.145-1.56.104-1.56-7.907.104-5.098.52-11.237.936-13.734.624-3.434.52-4.37-.52-4.37-.832 0-2.497 1.977-3.746 4.37zm13.318 41.202c1.144.729 1.144 12.277 0 13.526-.312.312-.624-.416-.624-1.665 0-1.248-.417-2.289-1.04-2.289-.521 0-1.041-1.352-1.041-3.017 0-1.665-.729-3.537-1.56-4.266-2.81-2.289 1.144-4.37 4.265-2.289zM329.376 305.416c-.417.937-.417 1.977-.104 2.29.208.311.728-.313 1.144-1.25.416-.936.416-1.976.104-2.288-.208-.312-.728.312-1.144 1.248zM235.216 307.497c0 1.145.312 1.457.624.624.312-.728.208-1.664-.104-1.976-.312-.417-.624.208-.52 1.352zM241.355 309.578c0 .832.52 1.249 1.04.936.624-.416.832-1.144.52-1.664-.936-1.457-1.56-1.145-1.56.728zM235.32 313.115c0 1.977.208 2.81.52 1.77.208-.937.208-2.602 0-3.642-.312-.937-.52-.104-.52 1.872zM336.659 318.838c-.937 2.705-.729 3.33.52 1.248.624-1.04.936-2.185.624-2.393-.208-.312-.728.208-1.144 1.145zM320.948 325.289c-.416 1.664-.936 4.786-1.248 7.075-.209 2.289-1.04 7.075-1.873 10.508-.833 3.537-1.56 8.22-1.665 10.404-.104 2.29-.624 4.89-1.144 5.827-.625 1.456-.52 1.665.728 1.248.832-.416 1.873-1.872 2.185-3.433.312-1.457.936-3.434 1.352-4.266.52-.936 1.249-3.225 1.665-5.202.832-3.746 3.538-9.364 5.098-10.508.416-.417.312-1.04-.416-1.457-.832-.52-.52-1.249 1.04-2.29 1.353-.935 1.977-2.184 1.665-3.12-.52-1.145-.208-1.353.937-.937 1.144.416 1.56 0 1.352-1.248-.208-1.249.416-1.77 1.977-1.77 1.248 0 2.705-.415 3.121-.935.416-.52-1.144-.729-3.537-.417-2.913.208-4.578-.104-4.89-.936-.312-.728-1.665-1.353-3.122-1.353-1.872 0-2.705.729-3.225 2.81zM197.656 334.444c0 2.81.208 4.786.52 4.578.729-.832.937-8.115.208-8.843-.416-.417-.728 1.456-.728 4.265z"/><path d="M265.285 333.924c0 .52.52 1.04 1.04 1.04.624 0 1.04-.52 1.04-1.04 0-.624-.416-1.04-1.04-1.04-.52 0-1.04.416-1.04 1.04zM254.048 343.496c.52 1.353 3.954 2.081 3.954.833 0-.417-.729-1.145-1.665-1.457-2.29-.936-2.705-.832-2.29.624zM242.395 350.26c0 1.768.416 3.537.936 3.849.833.624 2.705 9.156 2.497 11.757 0 .728.313 1.352.833 1.352 1.248 0 1.144-5.93-.104-6.763-.52-.312-1.04-1.976-1.04-3.537 0-1.665-.729-4.578-1.561-6.45l-1.457-3.538zM258.418 354.42c-.833 1.353-.833 2.706.104 4.995.728 1.665 1.144 3.954.936 4.994-.208 1.873-.208 1.873 1.56 0 1.874-1.769 1.874-1.977 0-4.578-1.976-2.913-1.664-4.266.73-3.33 1.872.729 1.872-.415 0-2.392-1.874-1.873-1.978-1.873-3.33.312zM95.693 358.27c0 .729 1.249 2.185 2.705 3.226l2.705 1.769-2.393-3.226c-2.705-3.641-3.017-3.85-3.017-1.769zM119.207 362.224c.936 5.93 1.457 6.347 1.457 1.04 0-2.288-.52-4.577-1.04-4.89-.729-.416-.833.833-.417 3.85zM313.353 365.241c-.208 1.977.104 2.914.832 2.497.624-.312.833-1.04.52-1.56-.312-.52-.104-1.145.52-1.56 1.457-.937 1.25-2.602-.312-2.602-.728 0-1.456 1.457-1.56 3.225zM125.554 363.785c-.416.312-.729 1.144-.729 1.769 0 .624.52.52 1.249-.209.624-.624.936-1.456.728-1.768-.312-.312-.936-.208-1.248.208zM101.936 365.554c0 .832 3.33 6.138 4.266 6.866.312.313 1.976 3.434 3.537 6.971l3.017 6.451 1.457-3.121c1.457-3.017 1.457-3.226-1.665-5.93-1.768-1.561-4.89-4.89-6.97-7.284-1.977-2.497-3.642-4.266-3.642-3.953zM287.134 370.964c-5.098 4.994-5.619 5.722-4.37 7.595 1.56 2.705 1.665 9.676 0 11.34-.936.937-.936 1.25.104 1.25 1.665 0-.416 2.184-3.85 4.057-1.248.624-2.6 2.393-2.913 3.746-.312 1.352-1.456 2.809-2.6 3.12-2.706.937-6.452 6.452-6.868 10.301-.52 4.89.416 7.908 2.393 7.18.833-.313 1.353-1.25 1.04-1.978-.312-.728.417-2.08 1.561-2.913 1.145-.728 1.665-1.56 1.04-1.769-.624-.208.209-1.872 1.873-3.745 2.081-2.29 3.33-2.913 4.058-2.185.729.728 1.457-.104 2.185-2.913.624-2.29 1.977-5.515 3.017-7.18 1.145-1.768 2.29-4.89 2.706-7.074.416-2.081 1.144-3.85 1.664-3.85 1.249 0 3.122-6.867 3.122-11.653 0-2.08.416-4.057.936-4.37 1.04-.728 2.289-4.89 1.353-4.682-.417.104-3.33 2.706-6.451 5.723zM244.476 372.94c0 1.145.312 3.122.624 4.37l.624 2.185 2.081-2.08c1.145-1.145 2.913-1.873 3.85-1.561 1.04.208 2.393-.416 3.017-1.457 1.873-2.913 1.56-3.225-1.769-1.456-3.12 1.56-6.138 1.144-7.595-.937-.52-.624-.832-.312-.832.937zM162.385 381.368c0 1.145.312 1.457.625.624.312-.728.208-1.664-.105-1.976-.312-.417-.624.208-.52 1.352zM275.273 382.409c-1.769 1.248-1.769 1.456-.416 1.456.936 0 2.08-.52 2.393-1.144 1.144-1.769.208-1.873-1.977-.312zM174.766 383.97c0 1.144.52 1.768 1.04 1.456.625-.312 1.041-1.353 1.041-2.185 0-.832-.416-1.457-1.04-1.457-.52 0-1.04.937-1.04 2.185zM216.8 383.865c.312 1.457.624 3.954.728 5.723.105 3.017.209 2.913 1.145-.833.936-3.433.832-4.37-.728-5.722-1.77-1.665-1.77-1.665-1.145.832zM231.99 382.825c0 .52.52 1.04 1.145 1.04.52 0 .728-.52.416-1.04-.312-.624-.832-1.04-1.144-1.04-.208 0-.416.416-.416 1.04zM194.639 384.281c-1.04 1.145-.937 3.538 0 10.197l1.352 8.635 1.249-8.22c.936-5.513.936-8.947.312-10.195-1.248-2.29-1.352-2.29-2.913-.417zM128.571 387.61c-.624 1.561-.416 1.561 1.145.313 1.04-.728 2.08-1.56 2.288-1.665.209-.208-.312-.312-1.144-.312-.936 0-1.977.728-2.289 1.665zM313.353 388.443c-.937 2.081-.833 3.226.208 5.306l1.457 2.706.416-3.954c.728-5.306-.52-7.491-2.081-4.058z"/><path d="M308.983 390.316c0 2.08-.728 4.266-1.56 4.994-.833.728-1.561 1.977-1.561 2.81 0 .832-3.226 8.219-7.283 16.334-3.954 8.116-7.283 15.399-7.283 16.231 0 1.353-.209 1.353-1.04 0-.833-1.249-1.041-1.145-1.041.728 0 1.249-.312 3.018-.625 3.85-.52 1.352-.104 1.56 1.77 1.248 1.56-.208 2.392-.936 2.184-1.976-.104-.833.208-1.873.832-2.29.52-.311 1.04.105 1.04 1.041 0 1.145.73 1.457 2.706 1.145 1.977-.417 2.497-.104 2.185.936-.312.728-.104 3.017.52 5.098.937 2.81.832 4.786-.104 8.116-.728 2.393-1.56 5.618-1.769 7.074-.312 1.457-1.664 3.642-3.017 4.89-1.457 1.25-2.601 2.914-2.601 3.538 0 .728-1.04 2.497-2.289 3.954-2.185 2.497-2.185 2.497.832-.208 1.665-1.561 3.642-2.81 4.37-2.81.729 0 1.249-.416 1.249-.832 0-.52.832-1.769 1.873-2.913.936-1.04 2.913-3.434 4.161-5.098 5.098-6.555 9.988-11.965 10.925-11.965 1.04 0 6.138-3.85 5.826-4.37-.104-.208.312-1.457 1.04-2.81 1.041-1.768 1.561-2.08 2.186-1.144.52.833 1.768-.312 3.745-3.745 1.56-2.81 3.226-5.307 3.642-5.619 1.456-1.04 3.017-6.242 1.977-6.242-.625 0-1.04.416-1.04 1.04 0 1.665-2.914 1.249-3.954-.624-.625-1.145-.937-.624-1.04 2.289-.105 2.185-.521 4.161-1.041 4.474-.52.312-1.353 1.456-1.977 2.6-.728 1.25-1.353 1.561-1.769.729-.416-.624-.312-1.144.312-1.144 1.353 0-2.185-6.451-3.85-7.075-.728-.209-1.04.208-.624 1.144.312.936-.104 2.705-.936 4.058-.832 1.352-1.769 3.641-2.185 5.202-.728 3.225-2.705 3.641-7.179 1.56-3.017-1.352-3.746-2.809-1.249-2.809 1.665 0 1.77-.624 1.77-9.155 0-3.954.415-5.41 1.456-5.41.832 0 1.456-.52 1.456-1.041 0-.624-.832-1.04-1.768-1.04-1.04 0-1.457-.417-.833-.833.625-.416 1.145-1.353 1.353-2.185.208-.832 1.144-2.705 2.185-4.162 1.769-2.6 1.873-6.346.208-6.346-.52 0-.936-3.122-.936-6.867 0-3.746-.313-7.075-.625-7.387-.312-.416-.624 1.04-.624 3.017zm1.04 16.439c0 1.144-.416 2.08-1.04 2.08-.52 0-1.04-.936-1.04-2.08 0-1.145.52-2.081 1.04-2.081.624 0 1.04.936 1.04 2.08zM112.444 390.212c-.104.936.729 2.393 1.769 3.121 1.56 1.249 1.665 1.249.624-.104-.624-.832-1.456-2.289-1.768-3.121-.52-1.353-.625-1.249-.625.104zM254.152 393.437c-2.601 3.434-2.601 4.162 0 2.29 2.81-1.978 3.537-3.538 1.873-3.538-.52 0-1.353.624-1.873 1.248zM268.51 393.853c0 1.145.312 1.457.624.625.312-.729.208-1.665-.104-1.977-.312-.416-.624.208-.52 1.352zM118.79 395.206c-1.144.728-1.144.936.209 1.457 1.04.416 1.665.104 1.665-.833 0-1.768-.104-1.768-1.873-.624zM243.852 398.952c-.417 1.456-.417 3.017 0 3.329.312.416.624-.104.624-1.04 0-2.081 2.185-2.29 3.953-.52.937.936 1.249.832 1.249-.52 0-.937-.728-1.77-1.56-1.77-.833 0-1.561-.52-1.561-1.04 0-2.185-2.081-.936-2.705 1.56z"/><path d="M313.145 398.952c0 .832.52 1.56 1.04 1.56.624 0 1.04-.728 1.04-1.56 0-.833-.416-1.561-1.04-1.561-.52 0-1.04.728-1.04 1.56zM269.134 399.16c-1.248 1.248-.728 2.289.833 1.768.832-.416 1.56-1.04 1.56-1.56 0-1.145-1.456-1.249-2.393-.208zM125.866 401.553c0 .52.52 1.04 1.04 1.04.625 0 1.04-.52 1.04-1.04 0-.625-.415-1.04-1.04-1.04-.52 0-1.04.415-1.04 1.04zM330.936 403.217c0 1.145.312 1.457.625.625.312-.729.208-1.665-.105-1.977-.312-.416-.624.208-.52 1.352zM230.43 403.634c-.312.52.104 1.04 1.04 1.04.937 0 1.353-.52 1.04-1.04-.311-.625-.832-1.04-1.04-1.04-.208 0-.728.415-1.04 1.04zM258.002 406.235c0 2.393-.313 4.682-.729 5.306-.52.52.416-.208 1.873-1.665 1.457-1.456 2.393-2.809 1.977-3.121-.416-.312-1.249-1.457-1.873-2.601-1.04-1.769-1.144-1.56-1.248 2.08zM154.998 405.61c0 1.77 1.873 2.185 2.497.625.312-.937 0-1.561-.936-1.561-.833 0-1.56.416-1.56.936zM217.216 406.443c.625.208 1.873.208 2.601 0 .625-.312.104-.52-1.352-.52-1.457 0-1.977.208-1.249.52zM249.782 410.396c-.104 2.29-.52 5.723-1.144 7.596-.729 2.913-.729 3.329.416 2.289.832-.625 1.769-2.29 2.08-3.642.417-1.457 1.457-2.601 2.394-2.601 1.664 0 1.664-.104 0-1.353-.937-.624-2.185-2.393-2.705-3.85-.937-2.392-1.04-2.288-1.04 1.561zM326.67 408.107c0 .417.729 2.29 1.665 4.058 1.249 2.497 1.873 2.913 2.601 1.769.52-.936.312-1.769-.624-2.289-.832-.416-1.977-1.56-2.497-2.601-.624-.937-1.145-1.353-1.145-.937zM144.698 412.581c0 1.145.312 1.457.624.625.312-.729.208-1.665-.104-1.977-.312-.416-.624.208-.52 1.352zM259.354 413.518c-1.457 1.04-2.08 2.185-1.665 3.33.52 1.248.313 1.456-.728.831-1.04-.624-1.144-.312-.624 1.665.52 1.353.832 3.33.936 4.37.208 2.913 2.185 1.353 3.017-2.497 1.04-4.474 1.873-9.26 1.561-9.26-.208 0-1.248.728-2.497 1.56zM194.327 419.76c-.416 3.434-.208 5.41.52 5.93 1.665 1.041 1.977-.831.936-6.45l-.832-4.682zM153.75 419.24c-.312 1.977 0 3.121.728 3.121s1.04-1.144.728-3.12c-.208-1.77-.52-3.122-.728-3.122-.208 0-.52 1.352-.728 3.121zM222.419 419.76c-.209 2.185 0 3.642.728 3.642s.936-1.457.728-3.642c-.208-1.976-.52-3.641-.728-3.641-.208 0-.52 1.665-.728 3.641zM182.05 421.633c0 2.081.416 3.85 1.04 3.85.52 0 .728-1.457.312-3.434-.832-4.682-1.352-4.89-1.352-.416zM241.146 421.737c-.312 1.665-.104 2.393.729 1.977.728-.208 1.144-1.353.832-2.497-.728-2.601-1.04-2.497-1.56.52zM317.307 420.28c0 .52.52 1.041 1.144 1.041.52 0 .728-.52.416-1.04-.312-.625-.832-1.04-1.144-1.04-.208 0-.416.415-.416 1.04zM207.852 423.402c-.312 1.977 0 3.121.729 3.121.728 0 1.04-1.144.728-3.121-.208-1.769-.52-3.121-.728-3.121-.208 0-.52 1.352-.729 3.12zM170.709 422.986c0 1.144.312 1.456.624.624.312-.728.208-1.665-.104-1.977-.312-.416-.624.208-.52 1.353zM249.886 422.57c-1.457 1.456-1.665 6.658-.312 7.49.728.417 3.225-5.826 3.225-8.115 0-1.04-1.56-.728-2.913.625zM240.834 428.604c-.416.624-1.04.832-1.56.52-.52-.312-1.457.416-2.081 1.561-.937 1.665-.833 2.08.52 2.08 1.04 0 1.56 1.041 1.56 3.122 0 4.37 1.665 3.85 2.498-.832.416-2.081.936-4.682 1.248-5.723.624-1.872-1.144-2.497-2.185-.728zM252.383 458.36c-.312.937-.624 2.394-.624 3.33 0 2.497 2.393-.208 2.601-2.913.208-2.497-1.04-2.81-1.977-.416zM283.18 471.262c-.728 1.249-1.04 2.497-.832 3.017.312.417-.624 1.353-1.977 1.977-2.393 1.04-3.642 3.33-1.873 3.33s7.7-5.619 7.18-6.867c-.313-.833-.105-1.457.415-1.457.625 0 1.04-.52 1.04-1.04 0-1.873-2.6-1.145-3.953 1.04zM271.735 481.875c-1.248 1.872-1.977 3.537-1.768 3.745.832.937 5.618-3.537 5.722-5.306 0-2.81-1.665-2.081-3.954 1.56zM260.186 491.759c-1.872 2.08-.624 3.017 1.457 1.04.832-.936 1.249-1.873.832-2.08-.52-.313-1.456.207-2.289 1.04zM256.44 495.296c-.415.624-.52 1.249-.207 1.56.208.313.728-.207 1.04-1.144.729-1.768.104-2.08-.832-.416zM248.638 501.643c0 .416.416.832.936.832.624 0 1.249-.416 1.56-.832.313-.52-.103-.937-.936-.937-.832 0-1.56.417-1.56.937z"/>
</svg>