<?xml version="1.0" encoding="UTF-8" standalone="no"?>
<svg
   version="1.0"
   width="396.42352pt"
   height="546pt"
   viewBox="0 0 396.42371 546"
   preserveAspectRatio="xMidYMid"
   id="svg133"
   sodipodi:docname="skullheadISVG.svg"
   inkscape:version="1.3.2 (091e20e, 2023-11-25, custom)"
   xmlns:inkscape="http://www.inkscape.org/namespaces/inkscape"
   xmlns:sodipodi="http://sodipodi.sourceforge.net/DTD/sodipodi-0.dtd"
   xmlns="http://www.w3.org/2000/svg"
   xmlns:svg="http://www.w3.org/2000/svg">
  <defs
     id="defs133" />
  <sodipodi:namedview
     id="namedview133"
     pagecolor="#ffffff"
     bordercolor="#000000"
     borderopacity="0.25"
     inkscape:showpageshadow="2"
     inkscape:pageopacity="0.0"
     inkscape:pagecheckerboard="0"
     inkscape:deskcolor="#d1d1d1"
     inkscape:document-units="pt"
     inkscape:zoom="1.5339196"
     inkscape:cx="309.01229"
     inkscape:cy="345.84603"
     inkscape:window-width="2560"
     inkscape:window-height="1417"
     inkscape:window-x="1072"
     inkscape:window-y="-8"
     inkscape:window-maximized="1"
     inkscape:current-layer="svg133" />
  <metadata
     id="metadata1">
Created by potrace 1.16, written by Peter Selinger 2001-2019
</metadata>
  <g
     transform="matrix(0.10404381,0,0,-0.10404381,-42.685081,526.40528)"
     fill="#000000"
     stroke="none"
     id="g133">
    <path
       d="m 4016,4743 c -6,-14 -5,-15 5,-6 7,7 10,15 7,18 -3,3 -9,-2 -12,-12 z"
       id="path1" />
    <path
       d="m 4045,4500 c -3,-5 -1,-10 4,-10 6,0 11,5 11,10 0,6 -2,10 -4,10 -3,0 -8,-4 -11,-10 z"
       id="path2" />
    <path
       d="m 4042,4415 c -11,-12 -10,-15 3,-15 8,0 15,7 15,15 0,18 -2,18 -18,0 z"
       id="path3" />
    <path
       d="m 4021,4377 c 2,-1 13,-9 24,-17 19,-14 19,-14 6,3 -7,9 -18,17 -24,17 -6,0 -8,-1 -6,-3 z"
       id="path4" />
    <path
       d="m 4070,4340 c 0,-5 5,-10 10,-10 6,0 10,5 10,10 0,6 -4,10 -10,10 -5,0 -10,-4 -10,-10 z"
       id="path5" />
    <path
       d="m 3890,4140 c 0,-5 5,-10 11,-10 5,0 7,5 4,10 -3,6 -8,10 -11,10 -2,0 -4,-4 -4,-10 z"
       id="path6" />
    <path
       d="m 3736,4121 c -4,-7 -5,-15 -2,-18 9,-9 19,4 14,18 -4,11 -6,11 -12,0 z"
       id="path7" />
    <path
       d="m 3475,4091 c -3,-5 -1,-12 5,-16 5,-3 10,1 10,9 0,18 -6,21 -15,7 z"
       id="path8" />
    <path
       d="m 3845,4090 c -3,-5 -1,-10 4,-10 6,0 11,5 11,10 0,6 -2,10 -4,10 -3,0 -8,-4 -11,-10 z"
       id="path9" />
    <path
       d="m 4050,4053 c 0,-13 5,-23 10,-23 13,0 13,11 0,30 -8,12 -10,11 -10,-7 z"
       id="path10" />
    <path
       d="m 3849,4023 c -10,-2 -15,-11 -12,-21 2,-11 -9,-32 -28,-52 -26,-27 -33,-42 -32,-72 2,-28 -1,-36 -13,-31 -9,3 -14,-1 -14,-13 -2,-67 -11,-128 -21,-140 -8,-10 -8,-26 2,-66 7,-29 12,-64 11,-77 -1,-13 2,-29 7,-35 4,-6 14,-29 21,-51 7,-22 19,-51 28,-65 48,-75 72,-136 72,-183 0,-39 -3,-48 -15,-43 -20,7 -14,-17 6,-26 11,-4 18,-26 22,-76 4,-39 11,-82 16,-95 19,-49 24,-168 11,-257 -11,-79 -11,-92 3,-113 19,-29 56,-42 64,-21 3,8 9,12 13,9 15,-9 47,30 59,74 7,25 16,54 21,65 4,12 8,26 10,31 1,6 9,18 17,28 12,12 12,17 3,17 -7,0 -10,8 -7,20 3,10 0,21 -7,24 -6,2 -1,8 12,11 12,4 22,15 22,26 0,10 4,20 9,23 5,3 11,17 13,31 4,21 1,25 -18,25 -33,0 -30,24 4,36 27,11 27,11 -8,8 -19,-1 -39,-2 -43,-3 -4,-1 -3,-10 3,-21 8,-15 7,-26 -6,-45 -15,-23 -43,-38 -29,-15 3,5 -1,20 -9,32 -16,23 -20,19 -16,-16 1,-10 -3,-15 -8,-12 -6,3 -13,0 -15,-6 -3,-7 -6,-3 -6,10 -1,17 -7,22 -30,22 -23,0 -30,5 -33,25 -3,14 -1,28 3,31 5,3 9,12 9,21 0,9 11,39 24,68 48,100 80,202 96,303 7,40 18,78 24,85 17,16 40,86 32,95 -4,3 -9,-4 -13,-16 -7,-28 -39,-29 -48,-2 -3,11 -11,20 -16,20 -14,0 -11,89 6,144 8,26 12,52 10,56 -3,5 0,20 6,34 7,14 8,33 4,43 -14,32 -15,54 -5,73 13,24 2,80 -16,80 -14,0 -27,-36 -22,-61 2,-8 -3,-13 -10,-11 -9,2 -12,-4 -7,-17 3,-11 1,-22 -5,-26 -5,-3 -10,-17 -10,-31 0,-13 -9,-33 -20,-44 -11,-11 -20,-28 -20,-37 0,-15 -1,-15 -12,-1 -10,12 -19,14 -36,7 -20,-8 -22,-13 -16,-46 3,-21 13,-44 22,-50 13,-11 11,-13 -19,-13 -20,0 -29,-4 -22,-8 8,-5 10,-17 5,-37 -6,-22 -17,-33 -42,-41 -19,-6 -36,-16 -38,-22 -2,-6 -10,-8 -18,-5 -32,12 2,215 55,327 25,53 49,128 39,125 -2,-1 -10,-3 -19,-6 z m 78,-277 c -7,-14 -13,-23 -15,-21 -7,6 9,45 18,45 4,0 3,-11 -3,-24 z m 117,-191 c 29,-26 34,-45 12,-45 -8,0 -19,-15 -25,-32 -9,-26 -14,-30 -21,-18 -8,13 -10,12 -10,-2 0,-22 -35,-58 -55,-58 -8,0 -15,-7 -15,-15 0,-21 -30,-31 -42,-14 -7,11 -11,11 -15,2 -5,-14 -33,-18 -33,-5 0,5 15,25 34,44 19,19 43,53 54,74 22,42 66,94 80,94 5,0 21,-11 36,-25 z m 86,-615 c 0,-5 -4,-10 -10,-10 -5,0 -10,5 -10,10 0,6 5,10 10,10 6,0 10,-4 10,-10 z"
       id="path11" />
    <path
       d="m 3905,3390 c 3,-5 8,-10 11,-10 2,0 4,5 4,10 0,6 -5,10 -11,10 -5,0 -7,-4 -4,-10 z"
       id="path12" />
    <path
       d="m 3596,3903 c -6,-14 -5,-15 5,-6 7,7 10,15 7,18 -3,3 -9,-2 -12,-12 z"
       id="path13" />
    <path
       d="m 801,3820 c 0,-14 6,-34 14,-44 18,-24 18,-21 0,29 -11,32 -14,35 -14,15 z"
       id="path14" />
    <path
       d="m 520,3749 c 0,-5 5,-7 10,-4 6,3 10,8 10,11 0,2 -4,4 -10,4 -5,0 -10,-5 -10,-11 z"
       id="path15" />
    <path
       d="m 588,3753 c 7,-3 16,-2 19,1 4,3 -2,6 -13,5 -11,0 -14,-3 -6,-6 z"
       id="path16" />
    <path
       d="m 620,3750 c 0,-6 10,-14 23,-19 12,-5 29,-18 37,-30 19,-28 34,-27 18,2 -7,12 -11,26 -10,30 1,4 -3,7 -10,5 -7,-1 -23,3 -35,10 -15,8 -23,9 -23,2 z"
       id="path17" />
    <path
       d="m 830,3743 c 0,-14 31,-46 37,-39 3,3 -4,15 -16,27 -12,13 -21,18 -21,12 z"
       id="path18" />
    <path
       d="m 930,3665 c -6,-8 -9,-19 -5,-25 3,-5 -2,-10 -12,-11 -10,0 -13,-3 -5,-6 6,-2 12,-11 12,-18 0,-8 6,-20 13,-27 8,-7 19,-24 26,-37 17,-30 27,-17 33,40 6,49 -11,87 -33,73 -7,-4 -10,-3 -5,4 10,17 -10,23 -24,7 z"
       id="path19" />
    <path
       d="m 710,3661 c 0,-5 5,-13 10,-16 6,-3 10,-2 10,4 0,5 -4,13 -10,16 -5,3 -10,2 -10,-4 z"
       id="path20" />
    <path
       d="m 1860,3630 c -30,-3 -73,-16 -95,-28 -32,-18 -56,-22 -127,-22 -87,0 -88,0 -88,25 0,21 -5,25 -31,25 -26,0 -30,-3 -27,-22 2,-18 -2,-24 -22,-26 -69,-8 -192,-47 -247,-78 -67,-37 -143,-109 -166,-156 -8,-17 -17,-25 -21,-20 -3,6 -2,13 4,17 5,3 10,13 10,21 0,13 -2,13 -16,0 -9,-9 -17,-23 -18,-31 -1,-8 -12,-23 -24,-33 -29,-26 -28,-34 4,-22 40,16 41,14 41,-52 0,-35 3,-117 7,-183 15,-226 70,-344 185,-393 31,-13 111,-25 111,-16 0,1 -13,17 -29,34 -19,22 -27,38 -23,55 2,14 8,22 13,19 5,-3 7,-9 4,-14 -3,-5 0,-20 6,-34 10,-21 19,-26 46,-26 37,0 82,20 103,45 15,18 124,95 134,95 4,0 5,-14 4,-31 -2,-21 3,-35 15,-43 25,-15 43,10 52,72 4,26 12,53 18,60 18,22 103,61 159,73 72,15 85,23 104,67 9,20 24,53 34,72 9,19 23,56 30,83 8,31 18,47 28,47 13,0 13,3 4,12 -15,15 -16,48 -2,48 6,0 10,12 10,26 0,14 -4,23 -9,20 -4,-3 -11,16 -14,43 -6,46 -59,151 -77,151 -10,0 -21,36 -25,83 -2,21 -5,39 -7,41 -1,1 -28,-1 -58,-4 z m -56,-225 c -4,-10 0,-15 10,-15 9,0 19,-6 22,-14 4,-11 12,-13 29,-6 26,10 35,5 35,-22 0,-10 6,-18 13,-19 9,0 9,-2 0,-5 -16,-7 -5,-34 13,-34 8,0 14,-6 15,-12 0,-7 2,-21 4,-31 3,-14 -1,-16 -16,-12 -11,4 -19,2 -19,-4 0,-6 10,-11 23,-11 l 22,-1 -23,-19 c -13,-10 -22,-22 -22,-27 3,-20 -21,-12 -31,11 -7,14 -19,27 -28,29 -9,3 -4,5 12,6 15,0 27,6 27,12 0,5 -5,7 -10,4 -6,-4 -37,6 -70,22 -55,26 -60,31 -60,60 0,25 4,31 15,27 8,-4 15,-3 15,1 0,3 -7,13 -15,21 -8,9 -15,21 -14,27 0,9 2,8 6,0 2,-7 12,-13 20,-13 9,0 13,6 10,14 -6,15 1,26 14,26 5,0 6,-7 3,-15 z m -76,-85 c 3,-7 0,-10 -6,-6 -6,3 -12,0 -15,-6 -2,-7 -8,-10 -12,-6 -11,10 3,40 17,36 6,-2 14,-10 16,-18 z m -233,-50 c 3,-5 1,-10 -4,-10 -6,0 -11,5 -11,10 0,6 2,10 4,10 3,0 8,-4 11,-10 z m 98,-7 c -7,-2 -13,-14 -13,-26 0,-18 2,-19 10,-7 7,11 11,9 19,-13 6,-16 11,-35 11,-42 0,-8 6,-18 14,-22 13,-7 27,-65 30,-121 1,-15 9,-25 24,-29 26,-6 30,-38 5,-47 -65,-23 -77,-25 -85,-13 -5,9 -8,7 -8,-4 0,-35 -217,-98 -236,-68 -9,14 -24,0 -17,-16 3,-9 -1,-15 -11,-15 -9,0 -16,-7 -16,-16 0,-13 -3,-14 -13,-5 -8,6 -16,9 -19,6 -12,-12 -25,25 -36,100 -15,97 -15,142 -2,150 5,3 7,12 3,20 -3,10 1,15 12,15 9,0 13,-4 10,-10 -3,-5 -1,-10 4,-10 6,0 11,2 11,4 0,2 3,11 6,20 4,12 0,16 -15,16 -12,0 -21,3 -21,8 -1,4 -3,24 -6,44 -5,33 -4,36 15,31 12,-3 24,-10 28,-16 4,-6 0,-8 -10,-4 -20,7 -21,3 -6,-24 7,-14 16,-18 30,-14 23,8 24,-6 4,-45 -10,-20 -12,-30 -4,-30 6,0 13,9 16,20 6,23 23,27 23,5 0,-19 5,-19 35,1 14,9 25,25 25,35 0,24 20,25 21,2 0,-14 2,-15 6,-3 3,8 13,21 22,29 15,13 15,13 -1,8 -9,-3 -22,1 -29,9 -11,13 -10,15 6,12 11,-1 20,2 20,9 0,22 65,67 65,45 0,-4 9,-8 20,-9 11,-1 18,2 15,7 -6,9 12,18 35,18 10,0 11,-1 3,-5 z m 397,-19 c 0,-2 -7,-4 -15,-4 -8,0 -15,4 -15,10 0,5 7,7 15,4 8,-4 15,-8 15,-10 z m -180,2 c 0,-3 -4,-8 -10,-11 -5,-3 -10,-1 -10,4 0,6 5,11 10,11 6,0 10,-2 10,-4 z m 185,-46 c -3,-5 -10,-10 -16,-10 -5,0 -9,5 -9,10 0,6 7,10 16,10 8,0 12,-4 9,-10 z m -585,-4 c 0,-11 -19,-15 -25,-6 -3,5 1,10 9,10 9,0 16,-2 16,-4 z m 428,-21 c -3,-3 -9,2 -12,12 -6,14 -5,15 5,6 7,-7 10,-15 7,-18 z m -463,-45 c -9,-14 -25,5 -25,30 0,12 3,12 16,-2 9,-9 13,-21 9,-28 z m 569,-21 c -3,-6 -7,-9 -8,-7 -1,2 -8,12 -16,22 -14,18 -14,19 8,7 12,-7 20,-17 16,-22 z m -214,-79 c 0,-5 -4,-10 -10,-10 -5,0 -10,5 -10,10 0,6 5,10 10,10 6,0 10,-4 10,-10 z m -512,-20 c -7,-10 -14,-18 -15,-16 -6,6 9,36 18,36 5,0 4,-9 -3,-20 z m 452,-104 c 0,-2 -7,-7 -16,-10 -8,-3 -12,-2 -9,4 6,10 25,14 25,6 z m -70,-15 c 0,-10 -80,-44 -87,-37 -5,5 65,45 80,46 4,0 7,-4 7,-9 z m -363,-33 c -3,-8 -6,-5 -6,6 -1,11 2,17 5,13 3,-3 4,-12 1,-19 z m 163,-43 c 0,-2 -13,-11 -30,-20 -33,-17 -40,-10 -12,11 17,13 42,19 42,9 z m -87,-35 c 3,-11 1,-18 -4,-14 -5,3 -9,12 -9,20 0,20 7,17 13,-6 z"
       id="path21" />
    <path
       d="m 1800,3366 c 0,-9 5,-16 10,-16 6,0 10,4 10,9 0,6 -4,13 -10,16 -5,3 -10,-1 -10,-9 z"
       id="path22" />
    <path
       d="m 1491,3224 c 0,-11 3,-14 6,-6 3,7 2,16 -1,19 -3,4 -6,-2 -5,-13 z"
       id="path23" />
    <path
       d="m 1520,3169 c 0,-5 7,-9 15,-9 8,0 15,-4 15,-9 0,-5 9,-13 21,-16 15,-5 17,-10 10,-19 -14,-17 -1,-29 16,-15 15,13 18,69 3,69 -5,0 -10,-4 -10,-10 0,-5 -7,-10 -15,-10 -8,0 -15,4 -15,9 0,5 -9,11 -20,14 -11,3 -20,1 -20,-4 z"
       id="path24" />
    <path
       d="m 1486,3112 c -3,-6 -1,-14 5,-17 14,-9 20,-2 10,14 -6,8 -11,9 -15,3 z"
       id="path25" />
    <path
       d="m 1626,3111 c -4,-7 -5,-15 -2,-18 9,-9 19,4 14,18 -4,11 -6,11 -12,0 z"
       id="path26" />
    <path
       d="m 1277,3073 c -12,-12 -7,-19 12,-19 15,0 17,3 9,13 -12,15 -13,15 -21,6 z"
       id="path27" />
    <path
       d="m 1680,2980 c 0,-5 5,-10 11,-10 5,0 7,5 4,10 -3,6 -8,10 -11,10 -2,0 -4,-4 -4,-10 z"
       id="path28" />
    <path
       d="m 1930,3620 c 0,-5 5,-10 11,-10 5,0 7,5 4,10 -3,6 -8,10 -11,10 -2,0 -4,-4 -4,-10 z"
       id="path29" />
    <path
       d="m 2907,3606 c -7,-18 1,-26 28,-26 29,0 37,10 24,27 -15,17 -45,17 -52,-1 z"
       id="path30" />
    <path
       d="m 742,3595 c 0,-11 3,-29 8,-40 11,-25 11,1 0,35 -6,20 -8,21 -8,5 z"
       id="path31" />
    <path
       d="m 2898,3537 c -18,-4 -44,-11 -57,-14 -24,-6 -61,-37 -61,-51 0,-15 -45,-67 -60,-70 -8,-2 -26,-14 -41,-28 -14,-13 -30,-24 -37,-24 -7,0 -12,-6 -12,-13 0,-14 -35,-47 -50,-47 -6,0 -10,-7 -10,-16 0,-12 -3,-14 -13,-6 -10,8 -12,5 -12,-14 1,-14 8,-30 16,-35 10,-7 11,-11 2,-17 -7,-4 -9,-13 -4,-21 7,-10 10,-10 16,-1 6,9 9,9 15,-1 7,-10 12,-10 23,0 9,6 27,14 41,17 24,4 26,1 26,-28 3,-215 43,-349 117,-398 21,-14 40,-28 43,-31 17,-22 81,-49 114,-49 h 39 l -37,32 c -27,23 -33,33 -24,39 10,7 10,9 1,9 -7,0 -13,8 -13,18 0,10 -8,28 -17,42 -16,22 -16,23 3,16 14,-5 12,0 -8,19 -16,14 -28,28 -28,30 0,8 62,-15 110,-41 56,-30 67,-52 50,-95 -17,-40 -6,-79 23,-79 13,0 28,5 35,12 17,17 15,49 -2,42 -8,-3 -16,3 -19,15 -3,12 0,21 5,21 6,0 5,6 -2,15 -37,44 49,-6 105,-62 59,-58 143,-113 175,-113 33,0 80,35 80,59 0,13 -16,22 -60,34 -33,10 -66,17 -75,17 -20,0 -73,25 -177,83 -82,46 -105,67 -75,67 8,0 7,4 -3,11 -10,7 -11,12 -4,15 7,3 9,15 6,26 -4,17 -2,20 11,15 8,-3 21,0 27,8 8,10 8,14 -2,18 -7,3 1,6 17,6 23,1 26,4 15,11 -12,8 -10,14 12,37 20,20 26,35 21,51 -4,18 -2,21 13,16 14,-4 15,-3 5,4 -24,17 4,47 58,61 28,7 51,17 51,22 0,5 12,9 28,9 15,1 38,7 51,14 13,7 33,11 44,8 14,-3 18,-1 13,6 -9,15 -72,16 -81,2 -4,-6 -15,-4 -30,6 -31,20 -22,48 13,41 15,-3 31,2 43,14 11,11 24,19 29,19 6,0 10,7 10,15 0,8 4,15 10,15 5,0 7,7 4,15 -4,10 0,15 13,15 29,0 57,-25 50,-44 -6,-14 -3,-15 13,-6 16,8 24,7 36,-5 18,-18 59,-29 73,-20 6,3 11,0 11,-7 0,-9 3,-9 10,2 9,13 10,13 10,0 0,-22 -20,-39 -37,-33 -12,5 -14,1 -9,-15 4,-12 2,-30 -4,-42 -17,-32 7,-24 27,10 21,37 36,38 57,5 15,-23 45,-37 31,-15 -3,6 -1,10 4,10 6,0 1,11 -11,25 -12,14 -28,25 -35,25 -7,0 -13,4 -13,9 0,6 9,8 20,6 13,-2 20,2 20,11 0,19 -50,94 -62,94 -5,0 -28,13 -51,29 -88,60 -228,105 -429,137 -120,19 -184,22 -230,11 z m -328,-297 c 0,-5 -5,-10 -11,-10 -5,0 -7,5 -4,10 3,6 8,10 11,10 2,0 4,-4 4,-10 z m 610,0 c 0,-5 -4,-10 -10,-10 -5,0 -10,5 -10,10 0,6 5,10 10,10 6,0 10,-4 10,-10 z m 55,-19 c -3,-6 -11,-8 -17,-5 -6,4 -5,9 3,15 16,10 23,4 14,-10 z m -55,-5 c 0,-3 -4,-8 -10,-11 -5,-3 -10,-1 -10,4 0,6 5,11 10,11 6,0 10,-2 10,-4 z m -60,-186 c 0,-5 -5,-10 -11,-10 -5,0 -7,5 -4,10 3,6 8,10 11,10 2,0 4,-4 4,-10 z"
       id="path32" />
    <path
       d="m 883,3329 c -7,-17 -16,-28 -21,-25 -5,3 -7,-7 -4,-22 5,-25 4,-26 -13,-12 -16,14 -17,12 -11,-35 6,-42 3,-59 -18,-105 -14,-30 -25,-64 -25,-75 1,-16 2,-15 8,5 5,14 18,48 31,75 40,88 82,225 68,225 -2,0 -9,-14 -15,-31 z"
       id="path33" />
    <path
       d="m 2315,3314 c -17,-20 -39,-32 -55,-30 -10,1 -90,-48 -90,-55 0,-4 -3,-16 -6,-26 -5,-17 -5,-17 6,0 6,9 17,17 24,17 8,0 17,7 20,16 4,10 13,13 25,9 14,-4 23,0 31,15 7,13 17,19 26,16 8,-3 17,1 20,9 3,7 12,11 20,8 8,-3 14,0 14,6 0,6 7,11 15,11 11,0 15,-11 15,-42 0,-48 11,-46 13,3 2,34 27,55 27,22 0,-15 2,-16 10,-3 9,13 13,11 31,-10 l 20,-25 -7,25 c -10,36 -31,46 -109,54 -22,2 -36,-4 -50,-20 z"
       id="path34" />
    <path
       d="m 945,3289 c -4,-6 -5,-12 -2,-15 2,-3 7,2 10,11 7,17 1,20 -8,4 z"
       id="path35" />
    <path
       d="m 3318,3233 c 7,-3 16,-2 19,1 4,3 -2,6 -13,5 -11,0 -14,-3 -6,-6 z"
       id="path36" />
    <path
       d="m 2485,3190 c -20,-45 -19,-66 18,-280 18,-100 24,-171 22,-230 -3,-90 14,-171 73,-330 33,-89 52,-102 50,-33 -1,26 1,59 6,72 5,15 5,21 -2,17 -5,-3 -13,1 -16,10 -8,22 -8,26 3,20 10,-7 8,26 -3,62 -5,14 -3,22 4,22 7,0 7,7 -2,23 -7,12 -11,25 -10,30 1,4 -2,7 -8,7 -5,0 -10,-7 -10,-15 0,-8 -4,-15 -10,-15 -12,0 -13,37 -1,44 4,3 6,18 3,32 -3,19 -1,25 7,20 6,-4 11,-13 11,-21 0,-8 4,-16 9,-20 10,-5 3,27 -17,75 -18,47 -32,96 -32,117 0,11 -3,23 -7,27 -4,3 -8,12 -10,19 -7,33 -29,87 -35,87 -3,0 -9,12 -12,28 -4,15 -9,38 -13,52 -8,28 -11,155 -4,183 2,13 9,16 25,11 18,-6 19,-5 7,10 -20,24 -26,20 -46,-24 z"
       id="path37" />
    <path
       d="m 3473,3216 c -4,-8 -17,-16 -28,-19 -15,-3 -13,-5 8,-6 17,-1 30,5 34,15 3,8 12,13 19,10 8,-3 14,-1 14,4 0,15 -38,12 -47,-4 z"
       id="path38" />
    <path
       d="m 2097,3178 c 2,-5 13,-8 24,-8 10,0 19,3 19,8 0,4 -11,7 -24,7 -13,0 -22,-3 -19,-7 z"
       id="path39" />
    <path
       d="m 3800,3180 c -12,-8 -10,-10 8,-10 13,0 20,4 17,10 -7,12 -6,12 -25,0 z"
       id="path40" />
    <path
       d="m 2540,3119 c 0,-22 -4,-38 -9,-35 -7,5 4,-73 12,-80 1,-1 3,33 4,77 2,43 1,79 -2,79 -3,0 -5,-18 -5,-41 z"
       id="path41" />
    <path
       d="m 3660,3131 c 0,-28 15,-49 27,-38 8,8 -7,67 -18,67 -5,0 -9,-13 -9,-29 z"
       id="path42" />
    <path
       d="m 2625,3083 c 7,-38 12,-50 19,-42 7,9 -7,79 -16,79 -6,0 -8,-14 -3,-37 z"
       id="path43" />
    <path
       d="m 3677,3073 c -4,-3 -7,-11 -7,-17 0,-6 5,-5 12,2 6,6 9,14 7,17 -3,3 -9,2 -12,-2 z"
       id="path44" />
    <path
       d="m 3661,3023 c 1,-10 5,-31 9,-48 7,-27 8,-25 9,18 0,26 -3,47 -9,47 -5,0 -9,-8 -9,-17 z"
       id="path45" />
    <path
       d="m 2634,2987 c 7,-53 40,-122 62,-131 17,-7 19,25 3,41 -7,7 -20,36 -30,64 -27,75 -43,87 -35,26 z"
       id="path46" />
    <path
       d="m 781,2984 c 0,-11 3,-14 6,-6 3,7 2,16 -1,19 -3,4 -6,-2 -5,-13 z"
       id="path47" />
    <path
       d="m 775,2921 c -3,-11 -4,-25 0,-31 3,-5 1,-19 -5,-30 -8,-14 -8,-20 0,-20 7,0 8,-5 3,-12 -13,-22 -10,-82 5,-94 9,-7 11,-13 5,-17 -11,-7 -5,-67 7,-67 18,0 22,46 15,155 -7,116 -17,155 -30,116 z"
       id="path48" />
    <path
       d="m 2335,2816 c -9,-13 -22,-23 -28,-21 -17,6 -42,-16 -51,-45 -4,-14 -14,-50 -22,-80 -8,-30 -27,-80 -42,-110 -15,-30 -26,-59 -24,-63 1,-5 -2,-6 -6,-3 -14,8 -36,-21 -76,-101 -64,-126 -80,-296 -37,-385 28,-58 102,-118 146,-118 18,0 38,-7 45,-15 21,-26 30,-17 30,30 0,25 5,45 11,45 6,0 8,9 3,22 -6,20 -5,21 10,9 14,-11 16,-11 16,1 0,8 -5,19 -11,25 -13,13 -2,56 12,48 5,-4 9,2 10,12 0,14 2,15 6,3 3,-8 9,-17 13,-20 14,-10 38,-98 33,-123 l -5,-25 63,5 c 87,8 124,26 156,74 22,34 27,55 31,122 4,76 1,93 -42,225 -25,78 -55,190 -67,249 -12,60 -29,126 -39,148 -10,22 -23,52 -28,66 -6,15 -21,29 -34,31 -13,3 -31,9 -40,12 -11,5 -22,0 -33,-18 z m -187,-628 c -2,-6 -10,-14 -16,-16 -7,-2 -10,2 -6,12 7,18 28,22 22,4 z m 22,-139 c 0,-5 -13,-9 -30,-9 -16,0 -30,5 -30,11 0,5 4,8 9,4 5,-3 12,-1 16,4 7,12 35,3 35,-10 z m -20,-29 c 0,-5 -4,-10 -10,-10 -5,0 -10,5 -10,10 0,6 5,10 10,10 6,0 10,-4 10,-10 z"
       id="path49" />
    <path
       d="m 2600,2786 c 0,-8 4,-17 9,-20 5,-4 7,3 4,14 -6,23 -13,26 -13,6 z"
       id="path50" />
    <path
       d="m 2681,2724 c 0,-11 3,-14 6,-6 3,7 2,16 -1,19 -3,4 -6,-2 -5,-13 z"
       id="path51" />
    <path
       d="m 2638,2714 c -4,-5 0,-32 7,-59 l 14,-50 v 40 c 0,44 -12,84 -21,69 z"
       id="path52" />
    <path
       d="m 3550,2670 c 0,-5 5,-10 10,-10 6,0 10,5 10,10 0,6 -4,10 -10,10 -5,0 -10,-4 -10,-10 z"
       id="path53" />
    <path
       d="m 610,2632 c 0,-15 28,-34 45,-30 12,2 8,8 -14,21 -17,10 -31,14 -31,9 z"
       id="path54" />
    <path
       d="m 775,2630 c -3,-5 -1,-10 4,-10 6,0 11,5 11,10 0,6 -2,10 -4,10 -3,0 -8,-4 -11,-10 z"
       id="path55" />
    <path
       d="m 3580,2630 c -8,-5 -12,-11 -9,-14 2,-3 11,-1 19,4 8,5 12,11 9,14 -2,3 -11,1 -19,-4 z"
       id="path56" />
    <path
       d="m 3743,2553 c -18,-7 -16,-23 2,-23 8,0 15,7 15,15 0,8 -1,15 -2,14 -2,0 -9,-3 -15,-6 z"
       id="path57" />
    <path
       d="m 4025,2520 c -3,-5 -3,-14 0,-20 3,-5 2,-10 -4,-10 -5,0 -12,8 -14,18 -3,11 -5,7 -6,-10 -1,-21 3,-25 19,-21 13,3 20,14 20,29 0,26 -5,30 -15,14 z"
       id="path58" />
    <path
       d="m 1708,2500 c -17,-10 -35,-67 -24,-77 3,-3 10,7 16,22 8,21 15,26 34,23 24,-5 33,20 12,34 -14,10 -17,9 -38,-2 z"
       id="path59" />
    <path
       d="m 4057,2504 c -4,-4 -7,-18 -7,-31 0,-27 -26,-31 -56,-8 -21,16 -44,19 -44,6 0,-5 11,-12 25,-15 30,-8 42,-47 26,-82 -14,-31 -14,-84 -1,-84 6,0 9,3 8,8 -3,10 63,136 76,144 6,5 7,8 1,8 -5,0 1,9 15,20 14,10 23,21 20,24 -10,9 -56,17 -63,10 z"
       id="path60" />
    <path
       d="m 3910,2490 c 0,-5 5,-10 10,-10 6,0 10,5 10,10 0,6 -4,10 -10,10 -5,0 -10,-4 -10,-10 z"
       id="path61" />
    <path
       d="m 2846,2443 c -36,-52 -34,-67 7,-59 17,3 37,13 43,22 9,12 13,12 17,2 4,-10 7,-10 18,-1 21,21 0,67 -33,71 -21,3 -32,-4 -52,-35 z"
       id="path62" />
    <path
       d="m 3258,2455 c 9,-13 19,-21 21,-19 2,2 9,-2 15,-10 14,-17 66,-30 66,-16 0,6 -27,23 -60,39 -57,28 -59,28 -42,6 z"
       id="path63" />
    <path
       d="m 3215,2437 c 23,-19 45,-22 45,-7 0,6 -6,10 -14,10 -8,0 -23,3 -33,6 -16,6 -16,5 2,-9 z"
       id="path64" />
    <path
       d="m 3879,2417 c 10,-12 10,-20 -1,-39 -7,-13 -19,-27 -25,-31 -20,-12 -15,-27 7,-27 18,0 19,-2 8,-20 -7,-11 -21,-20 -30,-20 -10,0 -18,-4 -18,-10 0,-5 5,-10 10,-10 6,0 10,-4 10,-9 0,-5 -8,-8 -17,-7 -14,1 -17,-5 -15,-26 2,-21 -2,-28 -15,-28 -15,0 -15,-2 3,-14 10,-8 17,-17 14,-19 -9,-9 -60,5 -54,14 3,5 -1,9 -8,9 -8,0 -14,-9 -15,-20 -1,-13 4,-20 15,-20 10,0 13,-3 6,-8 -6,-4 -13,-15 -17,-24 -4,-11 -12,-15 -22,-12 -10,4 -15,0 -15,-11 0,-10 -7,-23 -17,-30 -11,-8 -14,-18 -8,-31 4,-10 7,-30 6,-44 -2,-19 0,-22 11,-13 7,6 28,14 46,18 17,3 32,11 32,16 0,6 4,8 9,5 15,-10 155,146 184,205 27,57 33,79 20,79 -13,0 -12,80 0,81 7,0 1,5 -13,10 l -25,11 30,12 c 34,14 23,27 -18,19 -22,-4 -27,-11 -27,-36 0,-17 -3,-27 -7,-23 -4,4 -7,19 -8,34 0,21 -6,28 -25,30 -20,3 -22,2 -11,-11 z m 51,-99 c 0,-18 -2,-20 -9,-8 -6,8 -7,18 -5,22 9,14 14,9 14,-14 z m -209,-275 c -12,-20 -14,-14 -5,12 4,9 9,14 11,11 3,-2 0,-13 -6,-23 z m -34,-15 c -3,-8 -6,-5 -6,6 -1,11 2,17 5,13 3,-3 4,-12 1,-19 z"
       id="path65" />
    <path
       d="m 3730,2320 c 0,-5 5,-10 11,-10 5,0 7,5 4,10 -3,6 -8,10 -11,10 -2,0 -4,-4 -4,-10 z"
       id="path66" />
    <path
       d="m 801,2254 c -1,-12 6,-25 15,-28 13,-5 14,-3 7,6 -6,7 -13,20 -16,28 -4,10 -6,8 -6,-6 z"
       id="path67" />
    <path
       d="m 1068,2250 c -4,-14 -8,-34 -8,-45 1,-19 1,-19 11,-2 6,10 9,30 7,45 l -3,27 z"
       id="path68" />
    <path
       d="m 2815,2209 c -3,-13 -7,-40 -9,-59 -2,-19 -4,-38 -5,-42 0,-5 -8,-8 -16,-8 -8,0 -17,-11 -21,-25 -4,-18 -11,-24 -23,-21 -29,10 -39,-6 -31,-49 l 8,-40 1,44 c 1,52 11,50 13,-3 1,-42 18,-49 19,-8 l 1,27 12,-29 c 9,-20 15,-25 19,-15 2,8 2,-6 -1,-31 l -5,-45 29,30 29,30 -1,128 c -1,124 -7,164 -19,116 z"
       id="path69" />
    <path
       d="m 836,2211 c -3,-4 3,-16 13,-25 17,-16 18,-15 14,9 -5,25 -17,32 -27,16 z"
       id="path70" />
    <path
       d="m 1072,2160 c 0,-14 4,-36 8,-50 l 8,-25 v 25 c 0,14 -4,36 -8,50 l -8,25 z"
       id="path71" />
    <path
       d="m 926,2100 c 55,-70 108,-96 196,-94 59,1 66,-4 74,-51 2,-11 5,-29 7,-40 1,-11 5,-25 9,-30 8,-15 20,-66 23,-100 3,-31 26,-132 48,-212 6,-24 15,-43 20,-43 5,0 6,8 2,18 -4,9 -8,24 -10,32 -16,85 -16,90 -2,90 8,0 18,-7 21,-16 4,-9 9,-15 12,-12 2,3 -11,37 -31,76 -19,39 -35,77 -35,84 0,8 -9,31 -20,53 -11,22 -20,48 -20,60 -1,11 -7,37 -14,58 -13,34 -12,38 4,47 10,6 40,10 66,10 44,0 46,1 29,14 -11,8 -23,12 -27,10 -4,-2 -14,6 -23,18 -8,13 -19,23 -23,24 -28,2 -72,17 -72,25 0,16 -20,10 -27,-8 -9,-24 -29,-43 -37,-36 -3,4 -6,-1 -6,-10 0,-26 -32,-20 -57,11 -18,21 -22,23 -23,10 0,-10 -3,-18 -6,-18 -15,0 -64,57 -64,75 0,16 -2,17 -10,5 -7,-12 -12,-12 -22,-2 -6,6 -16,12 -20,12 -4,0 13,-27 38,-60 z m 344,-360 c 6,-11 7,-20 2,-20 -6,0 -12,9 -15,20 -3,11 -3,20 -1,20 2,0 8,-9 14,-20 z"
       id="path72" />
    <path
       d="m 2908,2108 c -13,-24 -23,-47 -23,-53 -1,-5 -6,-19 -12,-31 -15,-26 -13,-143 2,-141 5,1 9,-7 8,-17 -1,-11 3,-29 7,-42 6,-15 5,-25 -3,-28 -9,-5 -9,-7 1,-12 6,-3 12,-12 12,-19 0,-7 7,-12 16,-11 9,0 18,-7 20,-17 4,-28 14,-33 14,-8 0,13 4,20 11,16 6,-4 8,-14 4,-23 -3,-8 -1,-18 4,-21 5,-3 11,-45 13,-93 3,-74 2,-88 -11,-90 -45,-4 -91,-19 -91,-29 0,-5 9,-9 19,-9 11,0 21,-6 24,-12 3,-10 9,-8 18,4 8,10 29,19 47,20 22,2 32,7 32,18 0,9 11,23 25,30 26,14 55,65 55,98 0,12 -7,50 -15,86 -20,86 -6,155 43,209 14,15 21,27 15,27 -6,0 -16,-7 -23,-15 -21,-25 -32,-17 -26,18 3,17 3,26 0,18 -5,-11 -8,-11 -14,0 -6,9 -14,1 -26,-27 -9,-21 -21,-48 -26,-59 -5,-11 -8,-29 -7,-40 5,-52 -2,-129 -10,-116 -5,8 -22,19 -37,26 -25,10 -26,12 -12,25 14,13 14,17 0,38 -12,18 -12,28 -3,48 15,33 14,39 -4,24 -13,-11 -15,-1 -15,76 1,49 5,108 9,132 6,33 5,42 -5,42 -8,0 -24,-19 -36,-42 z m 128,-396 c 11,-7 11,-118 0,-130 -3,-3 -6,4 -6,16 0,12 -4,22 -10,22 -5,0 -10,13 -10,29 0,16 -7,34 -15,41 -27,22 11,42 41,22 z"
       id="path73" />
    <path
       d="m 3576,2124 c -4,-9 -4,-19 -1,-22 2,-3 7,3 11,12 4,9 4,19 1,22 -2,3 -7,-3 -11,-12 z"
       id="path74" />
    <path
       d="m 2671,2104 c 0,-11 3,-14 6,-6 3,7 2,16 -1,19 -3,4 -6,-2 -5,-13 z"
       id="path75" />
    <path
       d="m 2730,2084 c 0,-8 5,-12 10,-9 6,4 8,11 5,16 -9,14 -15,11 -15,-7 z"
       id="path76" />
    <path
       d="m 2672,2050 c 0,-19 2,-27 5,-17 2,9 2,25 0,35 -3,9 -5,1 -5,-18 z"
       id="path77" />
    <path
       d="m 3646,1995 c -9,-26 -7,-32 5,-12 6,10 9,21 6,23 -2,3 -7,-2 -11,-11 z"
       id="path78" />
    <path
       d="m 3495,1933 c -4,-16 -9,-46 -12,-68 -2,-22 -10,-68 -18,-101 -8,-34 -15,-79 -16,-100 -1,-22 -6,-47 -11,-56 -6,-14 -5,-16 7,-12 8,4 18,18 21,33 3,14 9,33 13,41 5,9 12,31 16,50 8,36 34,90 49,101 4,4 3,10 -4,14 -8,5 -5,12 10,22 13,9 19,21 16,30 -5,11 -2,13 9,9 11,-4 15,0 13,12 -2,12 4,17 19,17 12,0 26,4 30,9 4,5 -11,7 -34,4 -28,-2 -44,1 -47,9 -3,7 -16,13 -30,13 -18,0 -26,-7 -31,-27 z"
       id="path79" />
    <path
       d="m 2310,1845 c 0,-27 2,-46 5,-44 7,8 9,78 2,85 -4,4 -7,-14 -7,-41 z"
       id="path80" />
    <path
       d="m 2960,1850 c 0,-5 5,-10 10,-10 6,0 10,5 10,10 0,6 -4,10 -10,10 -5,0 -10,-4 -10,-10 z"
       id="path81" />
    <path
       d="m 2852,1758 c 5,-13 38,-20 38,-8 0,4 -7,11 -16,14 -22,9 -26,8 -22,-6 z"
       id="path82" />
    <path
       d="m 2740,1693 c 0,-17 4,-34 9,-37 8,-6 26,-88 24,-113 0,-7 3,-13 8,-13 12,0 11,57 -1,65 -5,3 -10,19 -10,34 0,16 -7,44 -15,62 l -14,34 z"
       id="path83" />
    <path
       d="m 2894,1653 c -8,-13 -8,-26 1,-48 7,-16 11,-38 9,-48 -2,-18 -2,-18 15,0 18,17 18,19 0,44 -19,28 -16,41 7,32 18,-7 18,4 0,23 -18,18 -19,18 -32,-3 z"
       id="path84" />
    <path
       d="m 1330,1616 c 0,-7 12,-21 26,-31 l 26,-17 -23,31 c -26,35 -29,37 -29,17 z"
       id="path85" />
    <path
       d="m 1556,1578 c 9,-57 14,-61 14,-10 0,22 -5,44 -10,47 -7,4 -8,-8 -4,-37 z"
       id="path86" />
    <path
       d="m 3422,1549 c -2,-19 1,-28 8,-24 6,3 8,10 5,15 -3,5 -1,11 5,15 14,9 12,25 -3,25 -7,0 -14,-14 -15,-31 z"
       id="path87" />
    <path
       d="m 1617,1563 c -4,-3 -7,-11 -7,-17 0,-6 5,-5 12,2 6,6 9,14 7,17 -3,3 -9,2 -12,-2 z"
       id="path88" />
    <path
       d="m 1390,1546 c 0,-8 32,-59 41,-66 3,-3 19,-33 34,-67 l 29,-62 14,30 c 14,29 14,31 -16,57 -17,15 -47,47 -67,70 -19,24 -35,41 -35,38 z"
       id="path89" />
    <path
       d="m 3170,1494 c -49,-48 -54,-55 -42,-73 15,-26 16,-93 0,-109 -9,-9 -9,-12 1,-12 16,0 -4,-21 -37,-39 -12,-6 -25,-23 -28,-36 -3,-13 -14,-27 -25,-30 -26,-9 -62,-62 -66,-99 -5,-47 4,-76 23,-69 8,3 13,12 10,19 -3,7 4,20 15,28 11,7 16,15 10,17 -6,2 2,18 18,36 20,22 32,28 39,21 7,-7 14,1 21,28 6,22 19,53 29,69 11,17 22,47 26,68 4,20 11,37 16,37 12,0 30,66 30,112 0,20 4,39 9,42 10,7 22,47 13,45 -4,-1 -32,-26 -62,-55 z"
       id="path90" />
    <path
       d="m 2760,1475 c 0,-11 3,-30 6,-42 l 6,-21 20,20 c 11,11 28,18 37,15 10,-2 23,4 29,14 18,28 15,31 -17,14 -30,-15 -59,-11 -73,9 -5,6 -8,3 -8,-9 z"
       id="path91" />
    <path
       d="m 1971,1394 c 0,-11 3,-14 6,-6 3,7 2,16 -1,19 -3,4 -6,-2 -5,-13 z"
       id="path92" />
    <path
       d="m 3056,1384 c -17,-12 -17,-14 -4,-14 9,0 20,5 23,11 11,17 2,18 -19,3 z"
       id="path93" />
    <path
       d="m 2090,1369 c 0,-11 5,-17 10,-14 6,3 10,13 10,21 0,8 -4,14 -10,14 -5,0 -10,-9 -10,-21 z"
       id="path94" />
    <path
       d="m 2494,1370 c 3,-14 6,-38 7,-55 1,-29 2,-28 11,8 9,33 8,42 -7,55 -17,16 -17,16 -11,-8 z"
       id="path95" />
    <path
       d="m 2640,1380 c 0,-5 5,-10 11,-10 5,0 7,5 4,10 -3,6 -8,10 -11,10 -2,0 -4,-4 -4,-10 z"
       id="path96" />
    <path
       d="m 2281,1366 c -10,-11 -9,-34 0,-98 l 13,-83 12,79 c 9,53 9,86 3,98 -12,22 -13,22 -28,4 z"
       id="path97" />
    <path
       d="m 1646,1334 c -6,-15 -4,-15 11,-3 10,7 20,15 22,16 2,2 -3,3 -11,3 -9,0 -19,-7 -22,-16 z"
       id="path98" />
    <path
       d="m 3422,1326 c -9,-20 -8,-31 2,-51 l 14,-26 4,38 c 7,51 -5,72 -20,39 z"
       id="path99" />
    <path
       d="m 3380,1308 c 0,-20 -7,-41 -15,-48 -8,-7 -15,-19 -15,-27 0,-8 -31,-79 -70,-157 -38,-78 -70,-148 -70,-156 0,-13 -2,-13 -10,0 -8,12 -10,11 -10,-7 0,-12 -3,-29 -6,-37 -5,-13 -1,-15 17,-12 15,2 23,9 21,19 -1,8 2,18 8,22 5,3 10,-1 10,-10 0,-11 7,-14 26,-11 19,4 24,1 21,-9 -3,-7 -1,-29 5,-49 9,-27 8,-46 -1,-78 -7,-23 -15,-54 -17,-68 -3,-14 -16,-35 -29,-47 -14,-12 -25,-28 -25,-34 0,-7 -10,-24 -22,-38 -21,-24 -21,-24 8,2 16,15 35,27 42,27 7,0 12,4 12,8 0,5 8,17 18,28 9,10 28,33 40,49 49,63 96,115 105,115 10,0 59,37 56,42 -1,2 3,14 10,27 10,17 15,20 21,11 5,-8 17,3 36,36 15,27 31,51 35,54 14,10 29,60 19,60 -6,0 -10,-4 -10,-10 0,-16 -28,-12 -38,6 -6,11 -9,6 -10,-22 -1,-21 -5,-40 -10,-43 -5,-3 -13,-14 -19,-25 -7,-12 -13,-15 -17,-7 -4,6 -3,11 3,11 13,0 -21,62 -37,68 -7,2 -10,-2 -6,-11 3,-9 -1,-26 -9,-39 -8,-13 -17,-35 -21,-50 -7,-31 -26,-35 -69,-15 -29,13 -36,27 -12,27 16,0 17,6 17,88 0,38 4,52 14,52 8,0 14,5 14,10 0,6 -8,10 -17,10 -10,0 -14,4 -8,8 6,4 11,13 13,21 2,8 11,26 21,40 17,25 18,61 2,61 -5,0 -9,30 -9,66 0,36 -3,68 -6,71 -3,4 -6,-10 -6,-29 z m 10,-158 c 0,-11 -4,-20 -10,-20 -5,0 -10,9 -10,20 0,11 5,20 10,20 6,0 10,-9 10,-20 z"
       id="path100" />
    <path
       d="m 1491,1309 c -1,-9 7,-23 17,-30 15,-12 16,-12 6,1 -6,8 -14,22 -17,30 -5,13 -6,12 -6,-1 z"
       id="path101" />
    <path
       d="m 2853,1278 c -25,-33 -25,-40 0,-22 27,19 34,34 18,34 -5,0 -13,-6 -18,-12 z"
       id="path102" />
    <path
       d="m 2991,1274 c 0,-11 3,-14 6,-6 3,7 2,16 -1,19 -3,4 -6,-2 -5,-13 z"
       id="path103" />
    <path
       d="m 1552,1261 c -11,-7 -11,-9 2,-14 10,-4 16,-1 16,8 0,17 -1,17 -18,6 z"
       id="path104" />
    <path
       d="m 2754,1225 c -4,-14 -4,-29 0,-32 3,-4 6,1 6,10 0,20 21,22 38,5 9,-9 12,-8 12,5 0,9 -7,17 -15,17 -8,0 -15,5 -15,10 0,21 -20,9 -26,-15 z"
       id="path105" />
    <path
       d="m 3420,1225 c 0,-8 5,-15 10,-15 6,0 10,7 10,15 0,8 -4,15 -10,15 -5,0 -10,-7 -10,-15 z"
       id="path106" />
    <path
       d="m 2997,1223 c -12,-12 -7,-22 8,-17 8,4 15,10 15,15 0,11 -14,12 -23,2 z"
       id="path107" />
    <path
       d="m 1620,1200 c 0,-5 5,-10 10,-10 6,0 10,5 10,10 0,6 -4,10 -10,10 -5,0 -10,-4 -10,-10 z"
       id="path108" />
    <path
       d="m 3591,1184 c 0,-11 3,-14 6,-6 3,7 2,16 -1,19 -3,4 -6,-2 -5,-13 z"
       id="path109" />
    <path
       d="m 2625,1180 c -3,-5 1,-10 10,-10 9,0 13,5 10,10 -3,6 -8,10 -10,10 -2,0 -7,-4 -10,-10 z"
       id="path110" />
    <path
       d="m 2890,1155 c 0,-23 -3,-45 -7,-51 -5,-5 4,2 18,16 14,14 23,27 19,30 -4,3 -12,14 -18,25 -10,17 -11,15 -12,-20 z"
       id="path111" />
    <path
       d="m 1900,1161 c 0,-17 18,-21 24,-6 3,9 0,15 -9,15 -8,0 -15,-4 -15,-9 z"
       id="path112" />
    <path
       d="m 2498,1153 c 6,-2 18,-2 25,0 6,3 1,5 -13,5 -14,0 -19,-2 -12,-5 z"
       id="path113" />
    <path
       d="m 2811,1115 c -1,-22 -5,-55 -11,-73 -7,-28 -7,-32 4,-22 8,6 17,22 20,35 4,14 14,25 23,25 16,0 16,1 0,13 -9,6 -21,23 -26,37 -9,23 -10,22 -10,-15 z"
       id="path114" />
    <path
       d="m 3550,1137 c 0,-4 7,-22 16,-39 12,-24 18,-28 25,-17 5,9 3,17 -6,22 -8,4 -19,15 -24,25 -6,9 -11,13 -11,9 z"
       id="path115" />
    <path
       d="m 1801,1094 c 0,-11 3,-14 6,-6 3,7 2,16 -1,19 -3,4 -6,-2 -5,-13 z"
       id="path116" />
    <path
       d="m 2903,1085 c -14,-10 -20,-21 -16,-32 5,-12 3,-14 -7,-8 -10,6 -11,3 -6,-16 5,-13 8,-32 9,-42 2,-28 21,-13 29,24 10,43 18,89 15,89 -2,0 -12,-7 -24,-15 z"
       id="path117" />
    <path
       d="m 2278,1025 c -4,-33 -2,-52 5,-57 16,-10 19,8 9,62 l -8,45 z"
       id="path118" />
    <path
       d="m 1888,1030 c -3,-19 0,-30 7,-30 7,0 10,11 7,30 -2,17 -5,30 -7,30 -2,0 -5,-13 -7,-30 z"
       id="path119" />
    <path
       d="m 2548,1025 c -2,-21 0,-35 7,-35 7,0 9,14 7,35 -2,19 -5,35 -7,35 -2,0 -5,-16 -7,-35 z"
       id="path120" />
    <path
       d="m 2160,1007 c 0,-20 4,-37 10,-37 5,0 7,14 3,33 -8,45 -13,47 -13,4 z"
       id="path121" />
    <path
       d="m 2728,1006 c -3,-16 -1,-23 7,-19 7,2 11,13 8,24 -7,25 -10,24 -15,-5 z"
       id="path122" />
    <path
       d="m 3460,1020 c 0,-5 5,-10 11,-10 5,0 7,5 4,10 -3,6 -8,10 -11,10 -2,0 -4,-4 -4,-10 z"
       id="path123" />
    <path
       d="m 2408,990 c -3,-19 0,-30 7,-30 7,0 10,11 7,30 -2,17 -5,30 -7,30 -2,0 -5,-13 -7,-30 z"
       id="path124" />
    <path
       d="m 2051,994 c 0,-11 3,-14 6,-6 3,7 2,16 -1,19 -3,4 -6,-2 -5,-13 z"
       id="path125" />
    <path
       d="m 2812,998 c -14,-14 -16,-64 -3,-72 7,-4 31,56 31,78 0,10 -15,7 -28,-6 z"
       id="path126" />
    <path
       d="m 2725,940 c -4,-6 -10,-8 -15,-5 -5,3 -14,-4 -20,-15 -9,-16 -8,-20 5,-20 10,0 15,-10 15,-30 0,-42 16,-37 24,8 4,20 9,45 12,55 6,18 -11,24 -21,7 z"
       id="path127" />
    <path
       d="m 2836,654 c -3,-9 -6,-23 -6,-32 0,-24 23,2 25,28 2,24 -10,27 -19,4 z"
       id="path128" />
    <path
       d="m 3132,530 c -7,-12 -10,-24 -8,-29 3,-4 -6,-13 -19,-19 -23,-10 -35,-32 -18,-32 17,0 74,54 69,66 -3,8 -1,14 4,14 6,0 10,5 10,10 0,18 -25,11 -38,-10 z"
       id="path129" />
    <path
       d="m 3022,428 c -12,-18 -19,-34 -17,-36 8,-9 54,34 55,51 0,27 -16,20 -38,-15 z"
       id="path130" />
    <path
       d="m 2911,333 c -18,-20 -6,-29 14,-10 8,9 12,18 8,20 -5,3 -14,-2 -22,-10 z"
       id="path131" />
    <path
       d="m 2875,299 c -4,-6 -5,-12 -2,-15 2,-3 7,2 10,11 7,17 1,20 -8,4 z"
       id="path132" />
    <path
       d="m 2800,238 c 0,-4 4,-8 9,-8 6,0 12,4 15,8 3,5 -1,9 -9,9 -8,0 -15,-4 -15,-9 z"
       id="path133" />
  </g>
</svg>
